<svg width="2041" height="1200" viewBox="0 0 2041 1200" fill="none" xmlns="http://www.w3.org/2000/svg">
<path d="M1986.32 338V316.976C1986.19 317.04 1985.93 317.136 1985.55 317.264C1985.19 317.392 1984.78 317.52 1984.33 317.648C1983.88 317.755 1983.47 317.861 1983.08 317.968C1982.72 318.075 1982.47 318.16 1982.32 318.224V314.928C1982.62 314.821 1982.99 314.672 1983.44 314.48C1983.88 314.288 1984.35 314.075 1984.84 313.84C1985.36 313.584 1985.83 313.307 1986.25 313.008C1986.7 312.709 1987.06 312.4 1987.34 312.08H1990.73V338H1986.32ZM1995.52 338V333.616H1999.74V338H1995.52ZM2009.72 338V331.632H2001.98V327.856L2008.73 312.08H2013.88V328.112H2016.54V331.632H2013.88V338H2009.72ZM2005.69 328.112H2009.72V316.848L2005.69 328.112ZM2018.77 338V312.08H2023.13V326.96L2027.89 319.504H2032.63L2027.99 326.928L2032.53 338H2027.96L2024.6 328.88L2023.13 330.928V338H2018.77Z" fill="white"/>
<path d="M1989.64 655.352C1988 655.352 1986.68 655.021 1985.68 654.36C1984.67 653.699 1983.96 652.781 1983.53 651.608C1983.11 650.413 1982.89 649.037 1982.89 647.48C1982.89 646.733 1982.96 646.051 1983.08 645.432C1983.23 644.792 1983.44 644.216 1983.69 643.704C1983.97 643.192 1984.3 642.744 1984.68 642.36C1985.07 641.955 1985.51 641.624 1986 641.368C1985.23 640.835 1984.58 640.109 1984.04 639.192C1983.53 638.253 1983.27 637.069 1983.24 635.64C1983.24 634.232 1983.47 633.016 1983.92 631.992C1984.39 630.947 1985.1 630.157 1986.06 629.624C1987.02 629.069 1988.22 628.792 1989.64 628.792C1991.1 628.792 1992.29 629.069 1993.23 629.624C1994.17 630.179 1994.86 630.968 1995.31 631.992C1995.78 633.016 1996 634.232 1995.98 635.64C1995.96 637.091 1995.69 638.275 1995.18 639.192C1994.69 640.109 1994.06 640.835 1993.29 641.368C1993.78 641.624 1994.22 641.955 1994.6 642.36C1994.99 642.744 1995.31 643.192 1995.56 643.704C1995.84 644.216 1996.04 644.792 1996.17 645.432C1996.32 646.051 1996.4 646.733 1996.4 647.48C1996.42 649.037 1996.2 650.413 1995.76 651.608C1995.33 652.781 1994.62 653.699 1993.61 654.36C1992.63 655.021 1991.31 655.352 1989.64 655.352ZM1989.64 651.992C1990.35 651.992 1990.87 651.779 1991.21 651.352C1991.58 650.925 1991.81 650.392 1991.92 649.752C1992.02 649.091 1992.08 648.419 1992.08 647.736C1992.1 647.011 1992.04 646.317 1991.92 645.656C1991.79 644.973 1991.54 644.419 1991.18 643.992C1990.84 643.565 1990.33 643.352 1989.64 643.352C1988.98 643.352 1988.47 643.565 1988.11 643.992C1987.77 644.419 1987.52 644.963 1987.37 645.624C1987.24 646.285 1987.18 646.989 1987.18 647.736C1987.18 648.419 1987.23 649.091 1987.34 649.752C1987.47 650.413 1987.71 650.957 1988.08 651.384C1988.44 651.789 1988.96 651.992 1989.64 651.992ZM1989.64 639.608C1990.18 639.587 1990.59 639.405 1990.89 639.064C1991.21 638.701 1991.44 638.211 1991.56 637.592C1991.69 636.973 1991.76 636.269 1991.76 635.48C1991.76 634.499 1991.6 633.699 1991.28 633.08C1990.96 632.461 1990.41 632.152 1989.64 632.152C1988.9 632.152 1988.34 632.461 1987.98 633.08C1987.64 633.699 1987.47 634.488 1987.47 635.448C1987.47 636.237 1987.53 636.952 1987.66 637.592C1987.81 638.211 1988.04 638.701 1988.36 639.064C1988.68 639.405 1989.11 639.587 1989.64 639.608ZM2006.34 655.384C2004.83 655.384 2003.57 655.064 2002.56 654.424C2001.58 653.784 2000.84 652.899 2000.32 651.768C1999.83 650.637 1999.59 649.336 1999.59 647.864V636.376C1999.59 634.861 1999.82 633.539 2000.29 632.408C2000.78 631.256 2001.52 630.36 2002.5 629.72C2003.5 629.08 2004.78 628.76 2006.34 628.76C2007.9 628.76 2009.17 629.08 2010.15 629.72C2011.15 630.36 2011.89 631.256 2012.36 632.408C2012.85 633.539 2013.09 634.861 2013.09 636.376V647.864C2013.09 649.336 2012.84 650.637 2012.32 651.768C2011.83 652.899 2011.09 653.784 2010.08 654.424C2009.1 655.064 2007.86 655.384 2006.34 655.384ZM2006.34 651.576C2007 651.576 2007.49 651.373 2007.81 650.968C2008.13 650.563 2008.35 650.072 2008.45 649.496C2008.56 648.92 2008.61 648.355 2008.61 647.8V636.44C2008.61 635.843 2008.56 635.256 2008.45 634.68C2008.37 634.083 2008.16 633.581 2007.84 633.176C2007.52 632.771 2007.02 632.568 2006.34 632.568C2005.66 632.568 2005.16 632.771 2004.84 633.176C2004.52 633.581 2004.3 634.083 2004.2 634.68C2004.11 635.256 2004.07 635.843 2004.07 636.44V647.8C2004.07 648.355 2004.12 648.92 2004.23 649.496C2004.36 650.072 2004.58 650.563 2004.9 650.968C2005.22 651.373 2005.7 651.576 2006.34 651.576ZM2023.43 655.384C2021.92 655.384 2020.66 655.064 2019.66 654.424C2018.68 653.784 2017.93 652.899 2017.42 651.768C2016.93 650.637 2016.68 649.336 2016.68 647.864V636.376C2016.68 634.861 2016.92 633.539 2017.39 632.408C2017.88 631.256 2018.61 630.36 2019.59 629.72C2020.6 629.08 2021.88 628.76 2023.43 628.76C2024.99 628.76 2026.26 629.08 2027.24 629.72C2028.25 630.36 2028.98 631.256 2029.45 632.408C2029.94 633.539 2030.19 634.861 2030.19 636.376V647.864C2030.19 649.336 2029.93 650.637 2029.42 651.768C2028.93 652.899 2028.18 653.784 2027.18 654.424C2026.2 655.064 2024.95 655.384 2023.43 655.384ZM2023.43 651.576C2024.1 651.576 2024.59 651.373 2024.91 650.968C2025.23 650.563 2025.44 650.072 2025.55 649.496C2025.65 648.92 2025.71 648.355 2025.71 647.8V636.44C2025.71 635.843 2025.65 635.256 2025.55 634.68C2025.46 634.083 2025.26 633.581 2024.94 633.176C2024.62 632.771 2024.12 632.568 2023.43 632.568C2022.75 632.568 2022.25 632.771 2021.93 633.176C2021.61 633.581 2021.4 634.083 2021.29 634.68C2021.21 635.256 2021.16 635.843 2021.16 636.44V647.8C2021.16 648.355 2021.22 648.92 2021.32 649.496C2021.45 650.072 2021.67 650.563 2021.99 650.968C2022.31 651.373 2022.79 651.576 2023.43 651.576Z" fill="white"/>
<path d="M1986.32 548V526.976C1986.19 527.04 1985.93 527.136 1985.55 527.264C1985.19 527.392 1984.78 527.52 1984.33 527.648C1983.88 527.755 1983.47 527.861 1983.08 527.968C1982.72 528.075 1982.47 528.16 1982.32 528.224V524.928C1982.62 524.821 1982.99 524.672 1983.44 524.48C1983.88 524.288 1984.35 524.075 1984.84 523.84C1985.36 523.584 1985.83 523.307 1986.25 523.008C1986.7 522.709 1987.06 522.4 1987.34 522.08H1990.73V548H1986.32ZM1995.71 548V522.08H2000.06V536.96L2004.83 529.504H2009.57L2004.93 536.928L2009.47 548H2004.9L2001.54 538.88L2000.06 540.928V548H1995.71Z" fill="white"/>
<path d="M1986.32 441V419.976C1986.19 420.04 1985.93 420.136 1985.55 420.264C1985.19 420.392 1984.78 420.52 1984.33 420.648C1983.88 420.755 1983.47 420.861 1983.08 420.968C1982.72 421.075 1982.47 421.16 1982.32 421.224V417.928C1982.62 417.821 1982.99 417.672 1983.44 417.48C1983.88 417.288 1984.35 417.075 1984.84 416.84C1985.36 416.584 1985.83 416.307 1986.25 416.008C1986.7 415.709 1987.06 415.4 1987.34 415.08H1990.73V441H1986.32ZM1995.52 441V436.616H1999.74V441H1995.52ZM2002.27 441V437.864L2008.67 427.976C2009.13 427.251 2009.57 426.557 2009.98 425.896C2010.4 425.235 2010.75 424.552 2011 423.848C2011.28 423.123 2011.42 422.333 2011.42 421.48C2011.42 420.52 2011.25 419.784 2010.91 419.272C2010.56 418.76 2010.03 418.504 2009.31 418.504C2008.62 418.504 2008.09 418.696 2007.71 419.08C2007.32 419.464 2007.05 419.965 2006.91 420.584C2006.78 421.203 2006.71 421.885 2006.71 422.632V423.72H2002.36V422.568C2002.36 421.032 2002.59 419.688 2003.03 418.536C2003.5 417.363 2004.24 416.445 2005.24 415.784C2006.24 415.123 2007.56 414.792 2009.18 414.792C2011.4 414.792 2013.06 415.389 2014.17 416.584C2015.28 417.779 2015.83 419.443 2015.83 421.576C2015.83 422.643 2015.68 423.613 2015.39 424.488C2015.09 425.341 2014.69 426.163 2014.2 426.952C2013.71 427.741 2013.18 428.552 2012.6 429.384L2007.29 437.448H2015.16V441H2002.27ZM2018.56 441V415.08H2022.91V429.96L2027.68 422.504H2032.41L2027.77 429.928L2032.32 441H2027.74L2024.38 431.88L2022.91 433.928V441H2018.56Z" fill="white"/>
<path d="M1982.8 971V967.864L1989.2 957.976C1989.67 957.251 1990.1 956.557 1990.51 955.896C1990.94 955.235 1991.28 954.552 1991.53 953.848C1991.81 953.123 1991.95 952.333 1991.95 951.48C1991.95 950.52 1991.78 949.784 1991.44 949.272C1991.1 948.76 1990.56 948.504 1989.84 948.504C1989.15 948.504 1988.62 948.696 1988.24 949.08C1987.85 949.464 1987.59 949.965 1987.44 950.584C1987.31 951.203 1987.24 951.885 1987.24 952.632V953.72H1982.89V952.568C1982.89 951.032 1983.12 949.688 1983.56 948.536C1984.03 947.363 1984.77 946.445 1985.77 945.784C1986.78 945.123 1988.09 944.792 1989.71 944.792C1991.93 944.792 1993.59 945.389 1994.7 946.584C1995.81 947.779 1996.36 949.443 1996.36 951.576C1996.36 952.643 1996.22 953.613 1995.92 954.488C1995.62 955.341 1995.22 956.163 1994.73 956.952C1994.24 957.741 1993.71 958.552 1993.13 959.384L1987.82 967.448H1995.69V971H1982.8ZM2005.93 971.384C2004.42 971.384 2003.16 971.064 2002.16 970.424C2001.18 969.784 2000.43 968.899 1999.92 967.768C1999.43 966.637 1999.18 965.336 1999.18 963.864V952.376C1999.18 950.861 1999.42 949.539 1999.89 948.408C2000.38 947.256 2001.11 946.36 2002.09 945.72C2003.1 945.08 2004.38 944.76 2005.93 944.76C2007.49 944.76 2008.76 945.08 2009.74 945.72C2010.75 946.36 2011.48 947.256 2011.95 948.408C2012.44 949.539 2012.69 950.861 2012.69 952.376V963.864C2012.69 965.336 2012.43 966.637 2011.92 967.768C2011.43 968.899 2010.68 969.784 2009.68 970.424C2008.7 971.064 2007.45 971.384 2005.93 971.384ZM2005.93 967.576C2006.6 967.576 2007.09 967.373 2007.41 966.968C2007.73 966.563 2007.94 966.072 2008.05 965.496C2008.15 964.92 2008.21 964.355 2008.21 963.8V952.44C2008.21 951.843 2008.15 951.256 2008.05 950.68C2007.96 950.083 2007.76 949.581 2007.44 949.176C2007.12 948.771 2006.62 948.568 2005.93 948.568C2005.25 948.568 2004.75 948.771 2004.43 949.176C2004.11 949.581 2003.9 950.083 2003.79 950.68C2003.71 951.256 2003.66 951.843 2003.66 952.44V963.8C2003.66 964.355 2003.72 964.92 2003.82 965.496C2003.95 966.072 2004.17 966.563 2004.49 966.968C2004.81 967.373 2005.29 967.576 2005.93 967.576ZM2023.03 971.384C2021.51 971.384 2020.26 971.064 2019.25 970.424C2018.27 969.784 2017.52 968.899 2017.01 967.768C2016.52 966.637 2016.28 965.336 2016.28 963.864V952.376C2016.28 950.861 2016.51 949.539 2016.98 948.408C2017.47 947.256 2018.21 946.36 2019.19 945.72C2020.19 945.08 2021.47 944.76 2023.03 944.76C2024.59 944.76 2025.86 945.08 2026.84 945.72C2027.84 946.36 2028.58 947.256 2029.04 948.408C2029.54 949.539 2029.78 950.861 2029.78 952.376V963.864C2029.78 965.336 2029.52 966.637 2029.01 967.768C2028.52 968.899 2027.78 969.784 2026.77 970.424C2025.79 971.064 2024.54 971.384 2023.03 971.384ZM2023.03 967.576C2023.69 967.576 2024.18 967.373 2024.5 966.968C2024.82 966.563 2025.03 966.072 2025.14 965.496C2025.25 964.92 2025.3 964.355 2025.3 963.8V952.44C2025.3 951.843 2025.25 951.256 2025.14 950.68C2025.06 950.083 2024.85 949.581 2024.53 949.176C2024.21 948.771 2023.71 948.568 2023.03 948.568C2022.35 948.568 2021.84 948.771 2021.52 949.176C2021.2 949.581 2020.99 950.083 2020.88 950.68C2020.8 951.256 2020.76 951.843 2020.76 952.44V963.8C2020.76 964.355 2020.81 964.92 2020.92 965.496C2021.04 966.072 2021.27 966.563 2021.59 966.968C2021.91 967.373 2022.39 967.576 2023.03 967.576Z" fill="white"/>
<path d="M1990.25 866V859.632H1982.51V855.856L1989.26 840.08H1994.41V856.112H1997.07V859.632H1994.41V866H1990.25ZM1986.22 856.112H1990.25V844.848L1986.22 856.112ZM2006.15 866.384C2004.64 866.384 2003.38 866.064 2002.38 865.424C2001.4 864.784 2000.65 863.899 2000.14 862.768C1999.65 861.637 1999.4 860.336 1999.4 858.864V847.376C1999.4 845.861 1999.64 844.539 2000.11 843.408C2000.6 842.256 2001.33 841.36 2002.31 840.72C2003.32 840.08 2004.6 839.76 2006.15 839.76C2007.71 839.76 2008.98 840.08 2009.96 840.72C2010.96 841.36 2011.7 842.256 2012.17 843.408C2012.66 844.539 2012.91 845.861 2012.91 847.376V858.864C2012.91 860.336 2012.65 861.637 2012.14 862.768C2011.65 863.899 2010.9 864.784 2009.9 865.424C2008.92 866.064 2007.67 866.384 2006.15 866.384ZM2006.15 862.576C2006.81 862.576 2007.31 862.373 2007.63 861.968C2007.95 861.563 2008.16 861.072 2008.27 860.496C2008.37 859.92 2008.43 859.355 2008.43 858.8V847.44C2008.43 846.843 2008.37 846.256 2008.27 845.68C2008.18 845.083 2007.98 844.581 2007.66 844.176C2007.34 843.771 2006.84 843.568 2006.15 843.568C2005.47 843.568 2004.97 843.771 2004.65 844.176C2004.33 844.581 2004.12 845.083 2004.01 845.68C2003.92 846.256 2003.88 846.843 2003.88 847.44V858.8C2003.88 859.355 2003.93 859.92 2004.04 860.496C2004.17 861.072 2004.39 861.563 2004.71 861.968C2005.03 862.373 2005.51 862.576 2006.15 862.576ZM2023.25 866.384C2021.73 866.384 2020.47 866.064 2019.47 865.424C2018.49 864.784 2017.74 863.899 2017.23 862.768C2016.74 861.637 2016.5 860.336 2016.5 858.864V847.376C2016.5 845.861 2016.73 844.539 2017.2 843.408C2017.69 842.256 2018.43 841.36 2019.41 840.72C2020.41 840.08 2021.69 839.76 2023.25 839.76C2024.8 839.76 2026.07 840.08 2027.06 840.72C2028.06 841.36 2028.79 842.256 2029.26 843.408C2029.75 844.539 2030 845.861 2030 847.376V858.864C2030 860.336 2029.74 861.637 2029.23 862.768C2028.74 863.899 2027.99 864.784 2026.99 865.424C2026.01 866.064 2024.76 866.384 2023.25 866.384ZM2023.25 862.576C2023.91 862.576 2024.4 862.373 2024.72 861.968C2025.04 861.563 2025.25 861.072 2025.36 860.496C2025.47 859.92 2025.52 859.355 2025.52 858.8V847.44C2025.52 846.843 2025.47 846.256 2025.36 845.68C2025.27 845.083 2025.07 844.581 2024.75 844.176C2024.43 843.771 2023.93 843.568 2023.25 843.568C2022.56 843.568 2022.06 843.771 2021.74 844.176C2021.42 844.581 2021.21 845.083 2021.1 845.68C2021.02 846.256 2020.98 846.843 2020.98 847.44V858.8C2020.98 859.355 2021.03 859.92 2021.14 860.496C2021.26 861.072 2021.49 861.563 2021.81 861.968C2022.13 862.373 2022.61 862.576 2023.25 862.576Z" fill="white"/>
<path d="M1990.03 762.352C1988.43 762.352 1987.13 761.979 1986.12 761.232C1985.12 760.485 1984.39 759.472 1983.92 758.192C1983.47 756.891 1983.24 755.44 1983.24 753.84V744.752C1983.24 743.067 1983.44 741.552 1983.82 740.208C1984.2 738.843 1984.89 737.765 1985.87 736.976C1986.85 736.187 1988.23 735.792 1990 735.792C1991.51 735.792 1992.74 736.048 1993.68 736.56C1994.64 737.051 1995.34 737.776 1995.79 738.736C1996.24 739.696 1996.46 740.88 1996.46 742.288C1996.46 742.352 1996.46 742.427 1996.46 742.512C1996.48 742.576 1996.49 742.64 1996.49 742.704H1992.24C1992.24 741.552 1992.1 740.688 1991.82 740.112C1991.54 739.536 1990.95 739.248 1990.03 739.248C1989.47 739.248 1989.03 739.419 1988.68 739.76C1988.34 740.101 1988.09 740.667 1987.92 741.456C1987.77 742.224 1987.69 743.259 1987.69 744.56V747.664C1987.99 747.173 1988.44 746.789 1989.04 746.512C1989.66 746.213 1990.37 746.064 1991.18 746.064C1992.59 746.043 1993.7 746.352 1994.51 746.992C1995.32 747.632 1995.9 748.517 1996.24 749.648C1996.6 750.779 1996.78 752.069 1996.78 753.52C1996.78 755.205 1996.57 756.72 1996.14 758.064C1995.71 759.387 1995.01 760.432 1994.03 761.2C1993.05 761.968 1991.71 762.352 1990.03 762.352ZM1990.06 758.928C1990.68 758.928 1991.15 758.736 1991.47 758.352C1991.79 757.968 1992.01 757.435 1992.14 756.752C1992.27 756.069 1992.33 755.269 1992.33 754.352C1992.33 753.413 1992.29 752.581 1992.2 751.856C1992.14 751.109 1991.95 750.523 1991.63 750.096C1991.31 749.648 1990.78 749.424 1990.03 749.424C1989.67 749.424 1989.32 749.499 1989 749.648C1988.71 749.776 1988.44 749.947 1988.2 750.16C1987.99 750.373 1987.82 750.587 1987.69 750.8V754.864C1987.69 755.589 1987.76 756.261 1987.88 756.88C1988.03 757.499 1988.28 758 1988.62 758.384C1988.98 758.747 1989.46 758.928 1990.06 758.928ZM2006.72 762.384C2005.2 762.384 2003.94 762.064 2002.94 761.424C2001.96 760.784 2001.21 759.899 2000.7 758.768C2000.21 757.637 1999.96 756.336 1999.96 754.864V743.376C1999.96 741.861 2000.2 740.539 2000.67 739.408C2001.16 738.256 2001.89 737.36 2002.88 736.72C2003.88 736.08 2005.16 735.76 2006.72 735.76C2008.27 735.76 2009.54 736.08 2010.52 736.72C2011.53 737.36 2012.26 738.256 2012.73 739.408C2013.22 740.539 2013.47 741.861 2013.47 743.376V754.864C2013.47 756.336 2013.21 757.637 2012.7 758.768C2012.21 759.899 2011.46 760.784 2010.46 761.424C2009.48 762.064 2008.23 762.384 2006.72 762.384ZM2006.72 758.576C2007.38 758.576 2007.87 758.373 2008.19 757.968C2008.51 757.563 2008.72 757.072 2008.83 756.496C2008.93 755.92 2008.99 755.355 2008.99 754.8V743.44C2008.99 742.843 2008.93 742.256 2008.83 741.68C2008.74 741.083 2008.54 740.581 2008.22 740.176C2007.9 739.771 2007.4 739.568 2006.72 739.568C2006.03 739.568 2005.53 739.771 2005.21 740.176C2004.89 740.581 2004.68 741.083 2004.57 741.68C2004.49 742.256 2004.44 742.843 2004.44 743.44V754.8C2004.44 755.355 2004.5 755.92 2004.6 756.496C2004.73 757.072 2004.96 757.563 2005.28 757.968C2005.6 758.373 2006.08 758.576 2006.72 758.576ZM2023.81 762.384C2022.29 762.384 2021.04 762.064 2020.03 761.424C2019.05 760.784 2018.31 759.899 2017.79 758.768C2017.3 757.637 2017.06 756.336 2017.06 754.864V743.376C2017.06 741.861 2017.29 740.539 2017.76 739.408C2018.25 738.256 2018.99 737.36 2019.97 736.72C2020.97 736.08 2022.25 735.76 2023.81 735.76C2025.37 735.76 2026.64 736.08 2027.62 736.72C2028.62 737.36 2029.36 738.256 2029.83 739.408C2030.32 740.539 2030.56 741.861 2030.56 743.376V754.864C2030.56 756.336 2030.31 757.637 2029.79 758.768C2029.3 759.899 2028.56 760.784 2027.55 761.424C2026.57 762.064 2025.32 762.384 2023.81 762.384ZM2023.81 758.576C2024.47 758.576 2024.96 758.373 2025.28 757.968C2025.6 757.563 2025.81 757.072 2025.92 756.496C2026.03 755.92 2026.08 755.355 2026.08 754.8V743.44C2026.08 742.843 2026.03 742.256 2025.92 741.68C2025.84 741.083 2025.63 740.581 2025.31 740.176C2024.99 739.771 2024.49 739.568 2023.81 739.568C2023.13 739.568 2022.63 739.771 2022.31 740.176C2021.99 740.581 2021.77 741.083 2021.67 741.68C2021.58 742.256 2021.54 742.843 2021.54 743.44V754.8C2021.54 755.355 2021.59 755.92 2021.7 756.496C2021.83 757.072 2022.05 757.563 2022.37 757.968C2022.69 758.373 2023.17 758.576 2023.81 758.576Z" fill="white"/>
<line x1="93" y1="229.5" x2="1958.6" y2="229.5" stroke="#342F43" stroke-width="7" stroke-dasharray="2 3"/>
<line x1="93.0049" y1="339" x2="1958.61" y2="339" stroke="#342F43" stroke-width="7" stroke-dasharray="2 3"/>
<line x1="93.0049" y1="442" x2="1958.61" y2="442" stroke="#342F43" stroke-width="7" stroke-dasharray="2 3"/>
<line x1="93.0049" y1="549" x2="1958.61" y2="549" stroke="#342F43" stroke-width="7" stroke-dasharray="2 3"/>
<line x1="93.0049" y1="656" x2="1958.61" y2="656" stroke="#342F43" stroke-width="7" stroke-dasharray="2 3"/>
<line x1="93.0049" y1="763" x2="1958.61" y2="763" stroke="#342F43" stroke-width="7" stroke-dasharray="2 3"/>
<line x1="93.0049" y1="867" x2="1958.61" y2="867" stroke="#342F43" stroke-width="7" stroke-dasharray="2 3"/>
<line x1="93.0049" y1="972" x2="1958.61" y2="972" stroke="#342F43" stroke-width="7" stroke-dasharray="2 3"/>
<path d="M1986.32 228V206.976C1986.19 207.04 1985.93 207.136 1985.55 207.264C1985.19 207.392 1984.78 207.52 1984.33 207.648C1983.88 207.755 1983.47 207.861 1983.08 207.968C1982.72 208.075 1982.47 208.16 1982.32 208.224V204.928C1982.62 204.821 1982.99 204.672 1983.44 204.48C1983.88 204.288 1984.35 204.075 1984.84 203.84C1985.36 203.584 1985.83 203.307 1986.25 203.008C1986.7 202.709 1987.06 202.4 1987.34 202.08H1990.73V228H1986.32ZM1995.52 228V223.616H1999.74V228H1995.52ZM2009.5 228.352C2007.9 228.352 2006.6 227.979 2005.59 227.232C2004.59 226.485 2003.85 225.472 2003.39 224.192C2002.94 222.891 2002.71 221.44 2002.71 219.84V210.752C2002.71 209.067 2002.91 207.552 2003.29 206.208C2003.67 204.843 2004.36 203.765 2005.34 202.976C2006.32 202.187 2007.69 201.792 2009.47 201.792C2010.98 201.792 2012.21 202.048 2013.15 202.56C2014.11 203.051 2014.81 203.776 2015.26 204.736C2015.71 205.696 2015.93 206.88 2015.93 208.288C2015.93 208.352 2015.93 208.427 2015.93 208.512C2015.95 208.576 2015.96 208.64 2015.96 208.704H2011.71C2011.71 207.552 2011.57 206.688 2011.29 206.112C2011.01 205.536 2010.41 205.248 2009.5 205.248C2008.94 205.248 2008.49 205.419 2008.15 205.76C2007.81 206.101 2007.56 206.667 2007.39 207.456C2007.24 208.224 2007.16 209.259 2007.16 210.56V213.664C2007.46 213.173 2007.91 212.789 2008.51 212.512C2009.12 212.213 2009.84 212.064 2010.65 212.064C2012.06 212.043 2013.17 212.352 2013.98 212.992C2014.79 213.632 2015.36 214.517 2015.71 215.648C2016.07 216.779 2016.25 218.069 2016.25 219.52C2016.25 221.205 2016.04 222.72 2015.61 224.064C2015.18 225.387 2014.48 226.432 2013.5 227.2C2012.52 227.968 2011.18 228.352 2009.5 228.352ZM2009.53 224.928C2010.15 224.928 2010.62 224.736 2010.94 224.352C2011.26 223.968 2011.48 223.435 2011.61 222.752C2011.74 222.069 2011.8 221.269 2011.8 220.352C2011.8 219.413 2011.76 218.581 2011.67 217.856C2011.61 217.109 2011.42 216.523 2011.1 216.096C2010.78 215.648 2010.24 215.424 2009.5 215.424C2009.13 215.424 2008.79 215.499 2008.47 215.648C2008.17 215.776 2007.91 215.947 2007.67 216.16C2007.46 216.373 2007.29 216.587 2007.16 216.8V220.864C2007.16 221.589 2007.23 222.261 2007.35 222.88C2007.5 223.499 2007.75 224 2008.09 224.384C2008.45 224.747 2008.93 224.928 2009.53 224.928ZM2019.34 228V202.08H2023.69V216.96L2028.46 209.504H2033.19L2028.55 216.928L2033.1 228H2028.52L2025.16 218.88L2023.69 220.928V228H2019.34Z" fill="white"/>
<line x1="92.999" y1="1072.5" x2="1963" y2="1072.5" stroke="#1A132C" stroke-width="8"/>
<path d="M204.008 1120.5V1098.1H207.432L217.224 1114.45H215.432L225.064 1098.1H228.488L228.52 1120.5H224.584L224.552 1104.28H225.384L217.192 1117.94H215.336L207.016 1104.28H207.976V1120.5H204.008ZM244.715 1120.5V1117.04L244.491 1116.31V1110.26C244.491 1109.09 244.139 1108.18 243.435 1107.54C242.731 1106.88 241.664 1106.55 240.235 1106.55C239.275 1106.55 238.325 1106.7 237.387 1107C236.469 1107.29 235.691 1107.71 235.051 1108.24L233.483 1105.33C234.4 1104.63 235.488 1104.11 236.747 1103.76C238.027 1103.4 239.349 1103.22 240.715 1103.22C243.189 1103.22 245.099 1103.82 246.443 1105.01C247.808 1106.19 248.491 1108.01 248.491 1110.48V1120.5H244.715ZM239.339 1120.72C238.059 1120.72 236.939 1120.51 235.979 1120.08C235.019 1119.64 234.272 1119.03 233.739 1118.26C233.227 1117.47 232.971 1116.59 232.971 1115.6C232.971 1114.64 233.195 1113.78 233.643 1113.01C234.112 1112.24 234.869 1111.64 235.915 1111.19C236.96 1110.74 238.347 1110.52 240.075 1110.52H245.035V1113.17H240.363C238.997 1113.17 238.08 1113.4 237.611 1113.84C237.141 1114.27 236.907 1114.8 236.907 1115.44C236.907 1116.17 237.195 1116.75 237.771 1117.17C238.347 1117.6 239.147 1117.81 240.171 1117.81C241.152 1117.81 242.027 1117.59 242.795 1117.14C243.584 1116.69 244.149 1116.03 244.491 1115.16L245.163 1117.56C244.779 1118.56 244.085 1119.34 243.083 1119.89C242.101 1120.45 240.853 1120.72 239.339 1120.72ZM253.624 1120.5V1103.41H257.432V1108.12L256.984 1106.74C257.496 1105.59 258.296 1104.71 259.384 1104.12C260.493 1103.52 261.869 1103.22 263.512 1103.22V1107.03C263.341 1106.99 263.181 1106.96 263.032 1106.96C262.883 1106.94 262.733 1106.93 262.584 1106.93C261.069 1106.93 259.864 1107.38 258.968 1108.28C258.072 1109.15 257.624 1110.46 257.624 1112.21V1120.5H253.624ZM274.589 1120.72C272.797 1120.72 271.197 1120.35 269.789 1119.6C268.402 1118.84 267.314 1117.79 266.525 1116.47C265.736 1115.15 265.341 1113.64 265.341 1111.96C265.341 1110.25 265.736 1108.75 266.525 1107.44C267.314 1106.12 268.402 1105.09 269.789 1104.34C271.197 1103.59 272.797 1103.22 274.589 1103.22C276.253 1103.22 277.714 1103.56 278.973 1104.24C280.253 1104.91 281.224 1105.89 281.885 1107.19L278.813 1108.98C278.301 1108.17 277.672 1107.57 276.925 1107.19C276.2 1106.8 275.41 1106.61 274.557 1106.61C273.576 1106.61 272.69 1106.83 271.901 1107.25C271.112 1107.68 270.493 1108.3 270.045 1109.11C269.597 1109.9 269.373 1110.85 269.373 1111.96C269.373 1113.07 269.597 1114.03 270.045 1114.84C270.493 1115.63 271.112 1116.23 271.901 1116.66C272.69 1117.09 273.576 1117.3 274.557 1117.3C275.41 1117.3 276.2 1117.11 276.925 1116.72C277.672 1116.34 278.301 1115.74 278.813 1114.93L281.885 1116.72C281.224 1118 280.253 1119 278.973 1119.7C277.714 1120.38 276.253 1120.72 274.589 1120.72ZM294.883 1103.22C296.248 1103.22 297.464 1103.49 298.531 1104.02C299.619 1104.55 300.472 1105.37 301.091 1106.48C301.709 1107.57 302.019 1108.98 302.019 1110.71V1120.5H298.019V1111.22C298.019 1109.71 297.656 1108.57 296.931 1107.83C296.227 1107.08 295.235 1106.71 293.955 1106.71C293.016 1106.71 292.184 1106.9 291.459 1107.28C290.733 1107.67 290.168 1108.24 289.763 1109.01C289.379 1109.76 289.187 1110.71 289.187 1111.86V1120.5H285.187V1096.76H289.187V1108.02L288.323 1106.61C288.92 1105.52 289.784 1104.69 290.915 1104.12C292.067 1103.52 293.389 1103.22 294.883 1103.22Z" fill="white"/>
<path d="M542.84 1120.5L552.92 1098.1H557.016L567.128 1120.5H562.776L554.104 1100.31H555.768L547.128 1120.5H542.84ZM547.48 1115.32L548.6 1112.05H560.696L561.816 1115.32H547.48ZM579.065 1120.72C577.678 1120.72 576.409 1120.4 575.257 1119.76C574.126 1119.12 573.219 1118.16 572.537 1116.88C571.875 1115.58 571.545 1113.94 571.545 1111.96C571.545 1109.95 571.865 1108.31 572.505 1107.03C573.166 1105.75 574.062 1104.8 575.193 1104.18C576.323 1103.54 577.614 1103.22 579.065 1103.22C580.75 1103.22 582.233 1103.58 583.513 1104.31C584.814 1105.03 585.838 1106.05 586.585 1107.35C587.353 1108.65 587.737 1110.19 587.737 1111.96C587.737 1113.73 587.353 1115.27 586.585 1116.6C585.838 1117.9 584.814 1118.91 583.513 1119.64C582.233 1120.36 580.75 1120.72 579.065 1120.72ZM569.593 1126.71V1103.41H573.401V1107.44L573.273 1111.99L573.593 1116.53V1126.71H569.593ZM578.617 1117.3C579.577 1117.3 580.43 1117.09 581.177 1116.66C581.945 1116.23 582.553 1115.61 583.001 1114.8C583.449 1113.99 583.673 1113.04 583.673 1111.96C583.673 1110.85 583.449 1109.9 583.001 1109.11C582.553 1108.3 581.945 1107.68 581.177 1107.25C580.43 1106.83 579.577 1106.61 578.617 1106.61C577.657 1106.61 576.793 1106.83 576.025 1107.25C575.257 1107.68 574.649 1108.3 574.201 1109.11C573.753 1109.9 573.529 1110.85 573.529 1111.96C573.529 1113.04 573.753 1113.99 574.201 1114.8C574.649 1115.61 575.257 1116.23 576.025 1116.66C576.793 1117.09 577.657 1117.3 578.617 1117.3ZM591.53 1120.5V1103.41H595.338V1108.12L594.89 1106.74C595.402 1105.59 596.202 1104.71 597.29 1104.12C598.4 1103.52 599.776 1103.22 601.418 1103.22V1107.03C601.248 1106.99 601.088 1106.96 600.938 1106.96C600.789 1106.94 600.64 1106.93 600.49 1106.93C598.976 1106.93 597.77 1107.38 596.874 1108.28C595.978 1109.15 595.53 1110.46 595.53 1112.21V1120.5H591.53ZM604.812 1120.5V1103.41H608.812V1120.5H604.812ZM606.828 1100.6C606.081 1100.6 605.462 1100.36 604.972 1099.89C604.502 1099.42 604.268 1098.86 604.268 1098.2C604.268 1097.51 604.502 1096.95 604.972 1096.5C605.462 1096.03 606.081 1095.8 606.828 1095.8C607.574 1095.8 608.182 1096.02 608.652 1096.47C609.142 1096.89 609.388 1097.44 609.388 1098.1C609.388 1098.8 609.153 1099.4 608.684 1099.89C608.214 1100.36 607.596 1100.6 606.828 1100.6ZM614.062 1120.5V1096.76H618.062V1120.5H614.062Z" fill="white"/>
<path d="M876.008 1120.5V1098.1H879.432L889.224 1114.45H887.432L897.064 1098.1H900.488L900.52 1120.5H896.584L896.552 1104.28H897.384L889.192 1117.94H887.336L879.016 1104.28H879.976V1120.5H876.008ZM916.715 1120.5V1117.04L916.491 1116.31V1110.26C916.491 1109.09 916.139 1108.18 915.435 1107.54C914.731 1106.88 913.664 1106.55 912.235 1106.55C911.275 1106.55 910.325 1106.7 909.387 1107C908.469 1107.29 907.691 1107.71 907.051 1108.24L905.483 1105.33C906.4 1104.63 907.488 1104.11 908.747 1103.76C910.027 1103.4 911.349 1103.22 912.715 1103.22C915.189 1103.22 917.099 1103.82 918.443 1105.01C919.808 1106.19 920.491 1108.01 920.491 1110.48V1120.5H916.715ZM911.339 1120.72C910.059 1120.72 908.939 1120.51 907.979 1120.08C907.019 1119.64 906.272 1119.03 905.739 1118.26C905.227 1117.47 904.971 1116.59 904.971 1115.6C904.971 1114.64 905.195 1113.78 905.643 1113.01C906.112 1112.24 906.869 1111.64 907.915 1111.19C908.96 1110.74 910.347 1110.52 912.075 1110.52H917.035V1113.17H912.363C910.997 1113.17 910.08 1113.4 909.611 1113.84C909.141 1114.27 908.907 1114.8 908.907 1115.44C908.907 1116.17 909.195 1116.75 909.771 1117.17C910.347 1117.6 911.147 1117.81 912.171 1117.81C913.152 1117.81 914.027 1117.59 914.795 1117.14C915.584 1116.69 916.149 1116.03 916.491 1115.16L917.163 1117.56C916.779 1118.56 916.085 1119.34 915.083 1119.89C914.101 1120.45 912.853 1120.72 911.339 1120.72ZM926.72 1126.93C925.888 1126.93 925.056 1126.79 924.224 1126.52C923.392 1126.24 922.698 1125.85 922.143 1125.36L923.743 1122.42C924.149 1122.78 924.608 1123.07 925.12 1123.28C925.632 1123.5 926.154 1123.6 926.688 1123.6C927.413 1123.6 928 1123.42 928.448 1123.06C928.896 1122.7 929.312 1122.09 929.696 1121.24L930.688 1119L931.008 1118.52L937.472 1103.41H941.312L933.312 1121.88C932.778 1123.16 932.181 1124.17 931.52 1124.92C930.88 1125.66 930.154 1126.19 929.344 1126.48C928.554 1126.78 927.68 1126.93 926.72 1126.93ZM930.24 1121.11L922.527 1103.41H926.688L932.96 1118.16L930.24 1121.11Z" fill="white"/>
<path d="M1201.5 1120.82C1200.07 1120.82 1198.74 1120.54 1197.53 1119.99C1196.33 1119.43 1195.35 1118.63 1194.58 1117.59L1196.95 1114.74C1197.57 1115.59 1198.24 1116.23 1198.97 1116.66C1199.71 1117.09 1200.53 1117.3 1201.4 1117.3C1203.73 1117.3 1204.89 1115.92 1204.89 1113.17V1101.59H1196.92V1098.1H1209.05V1112.95C1209.05 1115.59 1208.4 1117.57 1207.1 1118.87C1205.82 1120.17 1203.95 1120.82 1201.5 1120.82ZM1221.73 1120.72C1220.28 1120.72 1219 1120.46 1217.89 1119.92C1216.78 1119.37 1215.92 1118.54 1215.3 1117.43C1214.68 1116.3 1214.37 1114.88 1214.37 1113.17V1103.41H1218.37V1112.63C1218.37 1114.16 1218.71 1115.32 1219.4 1116.08C1220.1 1116.83 1221.09 1117.2 1222.37 1117.2C1223.31 1117.2 1224.12 1117.01 1224.8 1116.63C1225.51 1116.24 1226.05 1115.67 1226.44 1114.9C1226.84 1114.13 1227.04 1113.18 1227.04 1112.05V1103.41H1231.04V1120.5H1227.24V1115.89L1227.91 1117.3C1227.33 1118.41 1226.49 1119.26 1225.38 1119.86C1224.27 1120.44 1223.05 1120.72 1221.73 1120.72ZM1245.98 1103.22C1247.34 1103.22 1248.56 1103.49 1249.62 1104.02C1250.71 1104.55 1251.57 1105.37 1252.18 1106.48C1252.8 1107.57 1253.11 1108.98 1253.11 1110.71V1120.5H1249.11V1111.22C1249.11 1109.71 1248.75 1108.57 1248.02 1107.83C1247.32 1107.08 1246.33 1106.71 1245.05 1106.71C1244.11 1106.71 1243.28 1106.9 1242.55 1107.28C1241.83 1107.67 1241.26 1108.24 1240.86 1109.01C1240.47 1109.76 1240.28 1110.71 1240.28 1111.86V1120.5H1236.28V1103.41H1240.09V1108.02L1239.42 1106.61C1240.01 1105.52 1240.88 1104.69 1242.01 1104.12C1243.16 1103.52 1244.48 1103.22 1245.98 1103.22ZM1266.25 1120.72C1264.35 1120.72 1262.69 1120.35 1261.26 1119.6C1259.85 1118.84 1258.75 1117.79 1257.96 1116.47C1257.19 1115.15 1256.81 1113.64 1256.81 1111.96C1256.81 1110.25 1257.18 1108.75 1257.93 1107.44C1258.7 1106.12 1259.74 1105.09 1261.07 1104.34C1262.41 1103.59 1263.94 1103.22 1265.64 1103.22C1267.31 1103.22 1268.79 1103.58 1270.09 1104.31C1271.39 1105.03 1272.42 1106.06 1273.16 1107.38C1273.91 1108.7 1274.28 1110.26 1274.28 1112.05C1274.28 1112.22 1274.27 1112.41 1274.25 1112.63C1274.25 1112.84 1274.24 1113.04 1274.22 1113.24H1259.98V1110.58H1272.11L1270.54 1111.41C1270.56 1110.43 1270.36 1109.57 1269.93 1108.82C1269.5 1108.07 1268.92 1107.49 1268.17 1107.06C1267.44 1106.63 1266.6 1106.42 1265.64 1106.42C1264.66 1106.42 1263.8 1106.63 1263.05 1107.06C1262.32 1107.49 1261.75 1108.08 1261.32 1108.85C1260.92 1109.6 1260.71 1110.48 1260.71 1111.51V1112.15C1260.71 1113.17 1260.95 1114.08 1261.42 1114.87C1261.89 1115.66 1262.55 1116.27 1263.4 1116.69C1264.26 1117.12 1265.24 1117.33 1266.35 1117.33C1267.31 1117.33 1268.17 1117.18 1268.94 1116.88C1269.71 1116.59 1270.39 1116.12 1270.99 1115.48L1273.13 1117.94C1272.36 1118.84 1271.39 1119.53 1270.22 1120.02C1269.07 1120.49 1267.74 1120.72 1266.25 1120.72Z" fill="white"/>
<path d="M1532.5 1120.82C1531.07 1120.82 1529.74 1120.54 1528.53 1119.99C1527.33 1119.43 1526.35 1118.63 1525.58 1117.59L1527.95 1114.74C1528.57 1115.59 1529.24 1116.23 1529.97 1116.66C1530.71 1117.09 1531.53 1117.3 1532.4 1117.3C1534.73 1117.3 1535.89 1115.92 1535.89 1113.17V1101.59H1527.92V1098.1H1540.05V1112.95C1540.05 1115.59 1539.4 1117.57 1538.1 1118.87C1536.82 1120.17 1534.95 1120.82 1532.5 1120.82ZM1552.73 1120.72C1551.28 1120.72 1550 1120.46 1548.89 1119.92C1547.78 1119.37 1546.92 1118.54 1546.3 1117.43C1545.68 1116.3 1545.37 1114.88 1545.37 1113.17V1103.41H1549.37V1112.63C1549.37 1114.16 1549.71 1115.32 1550.4 1116.08C1551.1 1116.83 1552.09 1117.2 1553.37 1117.2C1554.31 1117.2 1555.12 1117.01 1555.8 1116.63C1556.51 1116.24 1557.05 1115.67 1557.44 1114.9C1557.84 1114.13 1558.04 1113.18 1558.04 1112.05V1103.41H1562.04V1120.5H1558.24V1115.89L1558.91 1117.3C1558.33 1118.41 1557.49 1119.26 1556.38 1119.86C1555.27 1120.44 1554.05 1120.72 1552.73 1120.72ZM1567.28 1120.5V1096.76H1571.28V1120.5H1567.28ZM1577.94 1126.93C1577.11 1126.93 1576.27 1126.79 1575.44 1126.52C1574.61 1126.24 1573.92 1125.85 1573.36 1125.36L1574.96 1122.42C1575.37 1122.78 1575.83 1123.07 1576.34 1123.28C1576.85 1123.5 1577.37 1123.6 1577.91 1123.6C1578.63 1123.6 1579.22 1123.42 1579.67 1123.06C1580.11 1122.7 1580.53 1122.09 1580.91 1121.24L1581.91 1119L1582.23 1118.52L1588.69 1103.41H1592.53L1584.53 1121.88C1584 1123.16 1583.4 1124.17 1582.74 1124.92C1582.1 1125.66 1581.37 1126.19 1580.56 1126.48C1579.77 1126.78 1578.9 1126.93 1577.94 1126.93ZM1581.46 1121.11L1573.75 1103.41H1577.91L1584.18 1118.16L1581.46 1121.11Z" fill="white"/>
<path d="M1842.84 1121L1852.92 1098.6H1857.02L1867.13 1121H1862.78L1854.1 1100.81H1855.77L1847.13 1121H1842.84ZM1847.48 1115.82L1848.6 1112.55H1860.7L1861.82 1115.82H1847.48ZM1876.51 1121.22C1875.06 1121.22 1873.78 1120.96 1872.67 1120.42C1871.56 1119.87 1870.7 1119.04 1870.08 1117.93C1869.46 1116.8 1869.15 1115.38 1869.15 1113.67V1103.91H1873.15V1113.13C1873.15 1114.66 1873.49 1115.82 1874.18 1116.58C1874.88 1117.33 1875.87 1117.7 1877.15 1117.7C1878.09 1117.7 1878.9 1117.51 1879.58 1117.13C1880.29 1116.74 1880.83 1116.17 1881.22 1115.4C1881.62 1114.63 1881.82 1113.68 1881.82 1112.55V1103.91H1885.82V1121H1882.02V1116.39L1882.69 1117.8C1882.11 1118.91 1881.27 1119.76 1880.16 1120.36C1879.05 1120.94 1877.83 1121.22 1876.51 1121.22ZM1898.81 1127.43C1897.23 1127.43 1895.68 1127.22 1894.17 1126.79C1892.67 1126.39 1891.45 1125.79 1890.49 1125L1892.28 1121.99C1893.02 1122.61 1893.96 1123.1 1895.09 1123.46C1896.25 1123.85 1897.41 1124.04 1898.58 1124.04C1900.46 1124.04 1901.83 1123.6 1902.71 1122.73C1903.58 1121.87 1904.02 1120.58 1904.02 1118.86V1115.82L1904.34 1111.94L1904.21 1108.07V1103.91H1908.02V1118.41C1908.02 1121.5 1907.23 1123.77 1905.65 1125.22C1904.07 1126.7 1901.79 1127.43 1898.81 1127.43ZM1898.29 1120.23C1896.67 1120.23 1895.2 1119.89 1893.88 1119.21C1892.58 1118.5 1891.54 1117.53 1890.77 1116.3C1890.03 1115.06 1889.65 1113.61 1889.65 1111.94C1889.65 1110.3 1890.03 1108.86 1890.77 1107.62C1891.54 1106.39 1892.58 1105.43 1893.88 1104.74C1895.2 1104.06 1896.67 1103.72 1898.29 1103.72C1899.74 1103.72 1901.05 1104.01 1902.2 1104.58C1903.35 1105.16 1904.27 1106.06 1904.95 1107.27C1905.65 1108.49 1906.01 1110.05 1906.01 1111.94C1906.01 1113.84 1905.65 1115.41 1904.95 1116.65C1904.27 1117.86 1903.35 1118.77 1902.2 1119.37C1901.05 1119.94 1899.74 1120.23 1898.29 1120.23ZM1898.9 1116.84C1899.9 1116.84 1900.8 1116.64 1901.59 1116.23C1902.38 1115.81 1902.99 1115.23 1903.41 1114.5C1903.86 1113.76 1904.09 1112.9 1904.09 1111.94C1904.09 1110.98 1903.86 1110.14 1903.41 1109.42C1902.99 1108.67 1902.38 1108.1 1901.59 1107.72C1900.8 1107.31 1899.9 1107.11 1898.9 1107.11C1897.9 1107.11 1896.99 1107.31 1896.18 1107.72C1895.39 1108.1 1894.77 1108.67 1894.33 1109.42C1893.9 1110.14 1893.69 1110.98 1893.69 1111.94C1893.69 1112.9 1893.9 1113.76 1894.33 1114.5C1894.77 1115.23 1895.39 1115.81 1896.18 1116.23C1896.99 1116.64 1897.9 1116.84 1898.9 1116.84ZM1920.51 1121.22C1919.06 1121.22 1917.78 1120.96 1916.67 1120.42C1915.56 1119.87 1914.7 1119.04 1914.08 1117.93C1913.46 1116.8 1913.15 1115.38 1913.15 1113.67V1103.91H1917.15V1113.13C1917.15 1114.66 1917.49 1115.82 1918.18 1116.58C1918.88 1117.33 1919.87 1117.7 1921.15 1117.7C1922.09 1117.7 1922.9 1117.51 1923.58 1117.13C1924.29 1116.74 1924.83 1116.17 1925.22 1115.4C1925.62 1114.63 1925.82 1113.68 1925.82 1112.55V1103.91H1929.82V1121H1926.02V1116.39L1926.69 1117.8C1926.11 1118.91 1925.27 1119.76 1924.16 1120.36C1923.05 1120.94 1921.83 1121.22 1920.51 1121.22ZM1940.34 1121.22C1938.91 1121.22 1937.54 1121.04 1936.21 1120.68C1934.91 1120.3 1933.88 1119.84 1933.11 1119.3L1934.65 1116.26C1935.41 1116.75 1936.33 1117.16 1937.4 1117.48C1938.46 1117.8 1939.53 1117.96 1940.6 1117.96C1941.86 1117.96 1942.76 1117.79 1943.32 1117.45C1943.89 1117.11 1944.18 1116.65 1944.18 1116.07C1944.18 1115.6 1943.99 1115.25 1943.61 1115.02C1943.22 1114.76 1942.72 1114.57 1942.1 1114.44C1941.48 1114.31 1940.79 1114.19 1940.02 1114.09C1939.27 1113.98 1938.52 1113.84 1937.75 1113.67C1937 1113.48 1936.32 1113.21 1935.7 1112.87C1935.08 1112.51 1934.58 1112.03 1934.2 1111.43C1933.81 1110.83 1933.62 1110.05 1933.62 1109.06C1933.62 1107.98 1933.93 1107.04 1934.55 1106.25C1935.17 1105.44 1936.03 1104.82 1937.14 1104.39C1938.27 1103.94 1939.61 1103.72 1941.14 1103.72C1942.29 1103.72 1943.46 1103.85 1944.63 1104.1C1945.8 1104.36 1946.77 1104.72 1947.54 1105.19L1946.01 1108.23C1945.19 1107.74 1944.37 1107.41 1943.54 1107.24C1942.73 1107.05 1941.92 1106.95 1941.11 1106.95C1939.89 1106.95 1938.99 1107.13 1938.39 1107.5C1937.81 1107.86 1937.53 1108.32 1937.53 1108.87C1937.53 1109.38 1937.72 1109.77 1938.1 1110.02C1938.49 1110.28 1938.99 1110.48 1939.61 1110.63C1940.22 1110.78 1940.91 1110.91 1941.65 1111.02C1942.42 1111.1 1943.18 1111.24 1943.93 1111.43C1944.67 1111.62 1945.35 1111.89 1945.97 1112.23C1946.61 1112.55 1947.13 1113.01 1947.51 1113.61C1947.89 1114.21 1948.09 1114.98 1948.09 1115.94C1948.09 1117.01 1947.77 1117.94 1947.13 1118.73C1946.51 1119.52 1945.62 1120.14 1944.47 1120.58C1943.32 1121.01 1941.94 1121.22 1940.34 1121.22ZM1957.96 1121.22C1956.08 1121.22 1954.63 1120.74 1953.61 1119.78C1952.59 1118.8 1952.07 1117.36 1952.07 1115.46V1100.14H1956.07V1115.37C1956.07 1116.18 1956.28 1116.81 1956.68 1117.26C1957.11 1117.7 1957.7 1117.93 1958.44 1117.93C1959.34 1117.93 1960.08 1117.69 1960.68 1117.22L1961.8 1120.07C1961.33 1120.46 1960.76 1120.74 1960.07 1120.94C1959.39 1121.13 1958.69 1121.22 1957.96 1121.22ZM1949.26 1107.24V1104.04H1960.65V1107.24H1949.26Z" fill="white"/>
<path d="M257 655L582 397L911 428L1237 360L1560 256L1907.5 303V972.5H1560H257V655Z" fill="url(#paint0_linear_255_35)"/>
<path d="M253 636L578 378L907 409L1233 341L1556 237L1911.5 283.5" stroke="#A43ACB" stroke-width="10"/>
<defs>
<linearGradient id="paint0_linear_255_35" x1="909" y1="784" x2="909" y2="333" gradientUnits="userSpaceOnUse">
<stop stop-color="#4717F7" stop-opacity="0.06"/>
<stop offset="1" stop-color="#A43ACB" stop-opacity="0.48"/>
</linearGradient>
</defs>
</svg>
