<svg width="3839" height="1441" viewBox="0 0 3839 1441" fill="none" xmlns="http://www.w3.org/2000/svg">
<path d="M27.024 93V25.8H37.296L66.672 74.856H61.296L90.192 25.8H100.464L100.56 93H88.752L88.656 44.328H91.152L66.576 85.32H61.008L36.048 44.328H38.928V93H27.024ZM149.144 93V82.632L148.472 80.424V62.28C148.472 58.76 147.416 56.04 145.304 54.12C143.192 52.136 139.992 51.144 135.704 51.144C132.824 51.144 129.976 51.592 127.16 52.488C124.408 53.384 122.072 54.632 120.152 56.232L115.448 47.496C118.2 45.384 121.464 43.816 125.24 42.792C129.08 41.704 133.048 41.16 137.144 41.16C144.568 41.16 150.296 42.952 154.328 46.536C158.424 50.056 160.472 55.528 160.472 62.952V93H149.144ZM133.016 93.672C129.176 93.672 125.816 93.032 122.936 91.752C120.056 90.408 117.816 88.584 116.216 86.28C114.68 83.912 113.912 81.256 113.912 78.312C113.912 75.432 114.584 72.84 115.928 70.536C117.336 68.232 119.608 66.408 122.744 65.064C125.88 63.72 130.04 63.048 135.224 63.048H150.104V71.016H136.088C131.992 71.016 129.24 71.688 127.832 73.032C126.424 74.312 125.72 75.912 125.72 77.832C125.72 80.008 126.584 81.736 128.312 83.016C130.04 84.296 132.44 84.936 135.512 84.936C138.456 84.936 141.08 84.264 143.384 82.92C145.752 81.576 147.448 79.592 148.472 76.968L150.488 84.168C149.336 87.176 147.256 89.512 144.248 91.176C141.304 92.84 137.56 93.672 133.016 93.672ZM175.872 93V41.736H187.296V55.848L185.952 51.72C187.488 48.264 189.888 45.64 193.152 43.848C196.48 42.056 200.608 41.16 205.536 41.16V52.584C205.024 52.456 204.544 52.392 204.096 52.392C203.648 52.328 203.2 52.296 202.752 52.296C198.208 52.296 194.592 53.64 191.904 56.328C189.216 58.952 187.872 62.888 187.872 68.136V93H175.872Z" fill="white"/>
<line x1="9.85156" y1="1441" x2="9.85156" y2="136.227" stroke="white" stroke-opacity="0.17" stroke-width="19"/>
<line x1="3825.48" y1="1441" x2="3825.48" y2="143.396" stroke="white" stroke-opacity="0.17" stroke-width="19"/>
<line x1="1265.86" y1="1441" x2="1265.86" y2="136.227" stroke="white" stroke-opacity="0.17" stroke-width="19"/>
<line x1="2558.49" y1="1433.83" x2="2558.49" y2="129.057" stroke="white" stroke-opacity="0.17" stroke-width="19"/>
<path d="M374.385 716.149L19 1441H3839V468.34L3751.22 416L3432.62 468.34H3205.04L2883.19 551.213L2756.4 620.66L2435.73 768.688L1930.63 598.957L1810.25 551.213L1615.37 620.66H1474.93L1348.83 551.213L1185.46 620.66L864.472 694.447L640.923 802.957L374.385 716.149Z" fill="url(#paint0_linear_224_188)"/>
<path d="M3662.49 93.96C3658.2 93.96 3654.23 93.128 3650.58 91.464C3647 89.8 3644.06 87.4 3641.75 84.264L3648.86 75.72C3650.71 78.28 3652.73 80.2 3654.9 81.48C3657.14 82.76 3659.58 83.4 3662.2 83.4C3669.18 83.4 3672.66 79.272 3672.66 71.016V36.264H3648.76V25.8H3685.14V70.344C3685.14 78.28 3683.19 84.2 3679.29 88.104C3675.45 92.008 3669.85 93.96 3662.49 93.96ZM3723.19 93.672C3718.84 93.672 3715 92.872 3711.67 91.272C3708.35 89.608 3705.75 87.112 3703.9 83.784C3702.04 80.392 3701.11 76.136 3701.11 71.016V41.736H3713.11V69.384C3713.11 73.992 3714.14 77.448 3716.19 79.752C3718.3 81.992 3721.27 83.112 3725.11 83.112C3727.93 83.112 3730.36 82.536 3732.41 81.384C3734.52 80.232 3736.15 78.504 3737.31 76.2C3738.52 73.896 3739.13 71.048 3739.13 67.656V41.736H3751.13V93H3739.71V79.176L3741.72 83.4C3739.99 86.728 3737.47 89.288 3734.14 91.08C3730.81 92.808 3727.16 93.672 3723.19 93.672ZM3795.93 41.16C3800.02 41.16 3803.67 41.96 3806.87 43.56C3810.14 45.16 3812.7 47.624 3814.55 50.952C3816.41 54.216 3817.34 58.44 3817.34 63.624V93H3805.34V65.16C3805.34 60.616 3804.25 57.224 3802.07 54.984C3799.96 52.744 3796.98 51.624 3793.14 51.624C3790.33 51.624 3787.83 52.2 3785.66 53.352C3783.48 54.504 3781.78 56.232 3780.57 58.536C3779.42 60.776 3778.84 63.624 3778.84 67.08V93H3766.84V41.736H3778.26V55.56L3776.25 51.336C3778.04 48.072 3780.63 45.576 3784.02 43.848C3787.48 42.056 3791.45 41.16 3795.93 41.16Z" fill="white"/>
<path d="M1274.52 93L1304.76 25.8H1317.05L1347.38 93H1334.33L1308.31 32.424H1313.3L1287.38 93H1274.52ZM1288.44 77.448L1291.8 67.656H1328.09L1331.45 77.448H1288.44ZM1383.19 93.672C1379.03 93.672 1375.23 92.712 1371.77 90.792C1368.38 88.872 1365.66 85.992 1363.61 82.152C1361.63 78.248 1360.63 73.32 1360.63 67.368C1360.63 61.352 1361.59 56.424 1363.51 52.584C1365.5 48.744 1368.19 45.896 1371.58 44.04C1374.97 42.12 1378.84 41.16 1383.19 41.16C1388.25 41.16 1392.7 42.248 1396.54 44.424C1400.44 46.6 1403.51 49.64 1405.75 53.544C1408.06 57.448 1409.21 62.056 1409.21 67.368C1409.21 72.68 1408.06 77.32 1405.75 81.288C1403.51 85.192 1400.44 88.232 1396.54 90.408C1392.7 92.584 1388.25 93.672 1383.19 93.672ZM1354.78 111.624V41.736H1366.2V53.832L1365.82 67.464L1366.78 81.096V111.624H1354.78ZM1381.85 83.4C1384.73 83.4 1387.29 82.76 1389.53 81.48C1391.83 80.2 1393.66 78.344 1395 75.912C1396.35 73.48 1397.02 70.632 1397.02 67.368C1397.02 64.04 1396.35 61.192 1395 58.824C1393.66 56.392 1391.83 54.536 1389.53 53.256C1387.29 51.976 1384.73 51.336 1381.85 51.336C1378.97 51.336 1376.38 51.976 1374.07 53.256C1371.77 54.536 1369.95 56.392 1368.6 58.824C1367.26 61.192 1366.59 64.04 1366.59 67.368C1366.59 70.632 1367.26 73.48 1368.6 75.912C1369.95 78.344 1371.77 80.2 1374.07 81.48C1376.38 82.76 1378.97 83.4 1381.85 83.4ZM1420.59 93V41.736H1432.01V55.848L1430.67 51.72C1432.21 48.264 1434.61 45.64 1437.87 43.848C1441.2 42.056 1445.33 41.16 1450.25 41.16V52.584C1449.74 52.456 1449.26 52.392 1448.81 52.392C1448.37 52.328 1447.92 52.296 1447.47 52.296C1442.93 52.296 1439.31 53.64 1436.62 56.328C1433.93 58.952 1432.59 62.888 1432.59 68.136V93H1420.59Z" fill="white"/>
<path d="M2577.02 93V25.8H2587.3L2616.67 74.856H2611.3L2640.19 25.8H2650.46L2650.56 93H2638.75L2638.66 44.328H2641.15L2616.58 85.32H2611.01L2586.05 44.328H2588.93V93H2577.02ZM2699.14 93V82.632L2698.47 80.424V62.28C2698.47 58.76 2697.42 56.04 2695.3 54.12C2693.19 52.136 2689.99 51.144 2685.7 51.144C2682.82 51.144 2679.98 51.592 2677.16 52.488C2674.41 53.384 2672.07 54.632 2670.15 56.232L2665.45 47.496C2668.2 45.384 2671.46 43.816 2675.24 42.792C2679.08 41.704 2683.05 41.16 2687.14 41.16C2694.57 41.16 2700.3 42.952 2704.33 46.536C2708.42 50.056 2710.47 55.528 2710.47 62.952V93H2699.14ZM2683.02 93.672C2679.18 93.672 2675.82 93.032 2672.94 91.752C2670.06 90.408 2667.82 88.584 2666.22 86.28C2664.68 83.912 2663.91 81.256 2663.91 78.312C2663.91 75.432 2664.58 72.84 2665.93 70.536C2667.34 68.232 2669.61 66.408 2672.74 65.064C2675.88 63.72 2680.04 63.048 2685.22 63.048H2700.1V71.016H2686.09C2681.99 71.016 2679.24 71.688 2677.83 73.032C2676.42 74.312 2675.72 75.912 2675.72 77.832C2675.72 80.008 2676.58 81.736 2678.31 83.016C2680.04 84.296 2682.44 84.936 2685.51 84.936C2688.46 84.936 2691.08 84.264 2693.38 82.92C2695.75 81.576 2697.45 79.592 2698.47 76.968L2700.49 84.168C2699.34 87.176 2697.26 89.512 2694.25 91.176C2691.3 92.84 2687.56 93.672 2683.02 93.672ZM2729.16 112.296C2726.66 112.296 2724.17 111.88 2721.67 111.048C2719.17 110.216 2717.09 109.064 2715.43 107.592L2720.23 98.76C2721.45 99.848 2722.82 100.712 2724.36 101.352C2725.89 101.992 2727.46 102.312 2729.06 102.312C2731.24 102.312 2733 101.768 2734.34 100.68C2735.69 99.592 2736.93 97.768 2738.09 95.208L2741.06 88.488L2742.02 87.048L2761.41 41.736H2772.93L2748.93 97.128C2747.33 100.968 2745.54 104.008 2743.56 106.248C2741.64 108.488 2739.46 110.056 2737.03 110.952C2734.66 111.848 2732.04 112.296 2729.16 112.296ZM2739.72 94.824L2716.58 41.736H2729.06L2747.88 85.992L2739.72 94.824Z" fill="white"/>
<defs>
<linearGradient id="paint0_linear_224_188" x1="19" y1="928.5" x2="3839" y2="928.5" gradientUnits="userSpaceOnUse">
<stop stop-color="#4717F7"/>
<stop offset="1" stop-color="#A43ACB"/>
</linearGradient>
</defs>
</svg>
