<svg width="1888" height="1200" viewBox="0 0 1888 1200" fill="none" xmlns="http://www.w3.org/2000/svg">
<path d="M1747.83 338V316.976C1747.7 317.04 1747.45 317.136 1747.06 317.264C1746.7 317.392 1746.3 317.52 1745.85 317.648C1745.4 317.755 1744.98 317.861 1744.6 317.968C1744.24 318.075 1743.98 318.16 1743.83 318.224V314.928C1744.13 314.821 1744.5 314.672 1744.95 314.48C1745.4 314.288 1745.87 314.075 1746.36 313.84C1746.87 313.584 1747.34 313.307 1747.77 313.008C1748.22 312.709 1748.58 312.4 1748.86 312.08H1752.25V338H1747.83ZM1757.04 338V333.616H1761.26V338H1757.04ZM1771.24 338V331.632H1763.49V327.856L1770.24 312.08H1775.4V328.112H1778.05V331.632H1775.4V338H1771.24ZM1767.2 328.112H1771.24V316.848L1767.2 328.112ZM1780.29 338V312.08H1784.64V326.96L1789.41 319.504H1794.15L1789.51 326.928L1794.05 338H1789.47L1786.11 328.88L1784.64 330.928V338H1780.29Z" fill="white"/>
<path d="M1751.16 655.352C1749.52 655.352 1748.19 655.021 1747.19 654.36C1746.19 653.699 1745.47 652.781 1745.05 651.608C1744.62 650.413 1744.41 649.037 1744.41 647.48C1744.41 646.733 1744.47 646.051 1744.6 645.432C1744.75 644.792 1744.95 644.216 1745.21 643.704C1745.49 643.192 1745.82 642.744 1746.2 642.36C1746.58 641.955 1747.02 641.624 1747.51 641.368C1746.74 640.835 1746.09 640.109 1745.56 639.192C1745.05 638.253 1744.78 637.069 1744.76 635.64C1744.76 634.232 1744.98 633.016 1745.43 631.992C1745.9 630.947 1746.62 630.157 1747.58 629.624C1748.54 629.069 1749.73 628.792 1751.16 628.792C1752.61 628.792 1753.81 629.069 1754.74 629.624C1755.68 630.179 1756.38 630.968 1756.82 631.992C1757.29 633.016 1757.52 634.232 1757.5 635.64C1757.47 637.091 1757.21 638.275 1756.7 639.192C1756.21 640.109 1755.58 640.835 1754.81 641.368C1755.3 641.624 1755.74 641.955 1756.12 642.36C1756.5 642.744 1756.82 643.192 1757.08 643.704C1757.36 644.216 1757.56 644.792 1757.69 645.432C1757.84 646.051 1757.91 646.733 1757.91 647.48C1757.93 649.037 1757.72 650.413 1757.27 651.608C1756.85 652.781 1756.13 653.699 1755.13 654.36C1754.15 655.021 1752.82 655.352 1751.16 655.352ZM1751.16 651.992C1751.86 651.992 1752.39 651.779 1752.73 651.352C1753.09 650.925 1753.33 650.392 1753.43 649.752C1753.54 649.091 1753.59 648.419 1753.59 647.736C1753.61 647.011 1753.56 646.317 1753.43 645.656C1753.3 644.973 1753.06 644.419 1752.7 643.992C1752.35 643.565 1751.84 643.352 1751.16 643.352C1750.5 643.352 1749.99 643.565 1749.62 643.992C1749.28 644.419 1749.04 644.963 1748.89 645.624C1748.76 646.285 1748.7 646.989 1748.7 647.736C1748.7 648.419 1748.75 649.091 1748.86 649.752C1748.98 650.413 1749.23 650.957 1749.59 651.384C1749.95 651.789 1750.48 651.992 1751.16 651.992ZM1751.16 639.608C1751.69 639.587 1752.11 639.405 1752.41 639.064C1752.73 638.701 1752.95 638.211 1753.08 637.592C1753.21 636.973 1753.27 636.269 1753.27 635.48C1753.27 634.499 1753.11 633.699 1752.79 633.08C1752.47 632.461 1751.93 632.152 1751.16 632.152C1750.41 632.152 1749.86 632.461 1749.5 633.08C1749.15 633.699 1748.98 634.488 1748.98 635.448C1748.98 636.237 1749.05 636.952 1749.18 637.592C1749.33 638.211 1749.56 638.701 1749.88 639.064C1750.2 639.405 1750.63 639.587 1751.16 639.608ZM1767.86 655.384C1766.34 655.384 1765.08 655.064 1764.08 654.424C1763.1 653.784 1762.35 652.899 1761.84 651.768C1761.35 650.637 1761.1 649.336 1761.1 647.864V636.376C1761.1 634.861 1761.34 633.539 1761.81 632.408C1762.3 631.256 1763.04 630.36 1764.02 629.72C1765.02 629.08 1766.3 628.76 1767.86 628.76C1769.41 628.76 1770.68 629.08 1771.66 629.72C1772.67 630.36 1773.4 631.256 1773.87 632.408C1774.36 633.539 1774.61 634.861 1774.61 636.376V647.864C1774.61 649.336 1774.35 650.637 1773.84 651.768C1773.35 652.899 1772.6 653.784 1771.6 654.424C1770.62 655.064 1769.37 655.384 1767.86 655.384ZM1767.86 651.576C1768.52 651.576 1769.01 651.373 1769.33 650.968C1769.65 650.563 1769.86 650.072 1769.97 649.496C1770.08 648.92 1770.13 648.355 1770.13 647.8V636.44C1770.13 635.843 1770.08 635.256 1769.97 634.68C1769.88 634.083 1769.68 633.581 1769.36 633.176C1769.04 632.771 1768.54 632.568 1767.86 632.568C1767.17 632.568 1766.67 632.771 1766.35 633.176C1766.03 633.581 1765.82 634.083 1765.71 634.68C1765.63 635.256 1765.58 635.843 1765.58 636.44V647.8C1765.58 648.355 1765.64 648.92 1765.74 649.496C1765.87 650.072 1766.1 650.563 1766.42 650.968C1766.74 651.373 1767.22 651.576 1767.86 651.576ZM1784.95 655.384C1783.44 655.384 1782.18 655.064 1781.17 654.424C1780.19 653.784 1779.45 652.899 1778.93 651.768C1778.44 650.637 1778.2 649.336 1778.2 647.864V636.376C1778.2 634.861 1778.43 633.539 1778.9 632.408C1779.39 631.256 1780.13 630.36 1781.11 629.72C1782.11 629.08 1783.39 628.76 1784.95 628.76C1786.51 628.76 1787.78 629.08 1788.76 629.72C1789.76 630.36 1790.5 631.256 1790.97 632.408C1791.46 633.539 1791.7 634.861 1791.7 636.376V647.864C1791.7 649.336 1791.45 650.637 1790.93 651.768C1790.44 652.899 1789.7 653.784 1788.69 654.424C1787.71 655.064 1786.46 655.384 1784.95 655.384ZM1784.95 651.576C1785.61 651.576 1786.1 651.373 1786.42 650.968C1786.74 650.563 1786.96 650.072 1787.06 649.496C1787.17 648.92 1787.22 648.355 1787.22 647.8V636.44C1787.22 635.843 1787.17 635.256 1787.06 634.68C1786.98 634.083 1786.77 633.581 1786.45 633.176C1786.13 632.771 1785.63 632.568 1784.95 632.568C1784.27 632.568 1783.77 632.771 1783.45 633.176C1783.13 633.581 1782.91 634.083 1782.81 634.68C1782.72 635.256 1782.68 635.843 1782.68 636.44V647.8C1782.68 648.355 1782.73 648.92 1782.84 649.496C1782.97 650.072 1783.19 650.563 1783.51 650.968C1783.83 651.373 1784.31 651.576 1784.95 651.576Z" fill="white"/>
<path d="M1747.83 548V526.976C1747.7 527.04 1747.45 527.136 1747.06 527.264C1746.7 527.392 1746.3 527.52 1745.85 527.648C1745.4 527.755 1744.98 527.861 1744.6 527.968C1744.24 528.075 1743.98 528.16 1743.83 528.224V524.928C1744.13 524.821 1744.5 524.672 1744.95 524.48C1745.4 524.288 1745.87 524.075 1746.36 523.84C1746.87 523.584 1747.34 523.307 1747.77 523.008C1748.22 522.709 1748.58 522.4 1748.86 522.08H1752.25V548H1747.83ZM1757.23 548V522.08H1761.58V536.96L1766.35 529.504H1771.08L1766.44 536.928L1770.99 548H1766.41L1763.05 538.88L1761.58 540.928V548H1757.23Z" fill="white"/>
<path d="M1747.83 441V419.976C1747.7 420.04 1747.45 420.136 1747.06 420.264C1746.7 420.392 1746.3 420.52 1745.85 420.648C1745.4 420.755 1744.98 420.861 1744.6 420.968C1744.24 421.075 1743.98 421.16 1743.83 421.224V417.928C1744.13 417.821 1744.5 417.672 1744.95 417.48C1745.4 417.288 1745.87 417.075 1746.36 416.84C1746.87 416.584 1747.34 416.307 1747.77 416.008C1748.22 415.709 1748.58 415.4 1748.86 415.08H1752.25V441H1747.83ZM1757.04 441V436.616H1761.26V441H1757.04ZM1763.78 441V437.864L1770.18 427.976C1770.65 427.251 1771.09 426.557 1771.49 425.896C1771.92 425.235 1772.26 424.552 1772.52 423.848C1772.79 423.123 1772.93 422.333 1772.93 421.48C1772.93 420.52 1772.76 419.784 1772.42 419.272C1772.08 418.76 1771.55 418.504 1770.82 418.504C1770.14 418.504 1769.6 418.696 1769.22 419.08C1768.84 419.464 1768.57 419.965 1768.42 420.584C1768.29 421.203 1768.23 421.885 1768.23 422.632V423.72H1763.88V422.568C1763.88 421.032 1764.1 419.688 1764.55 418.536C1765.02 417.363 1765.75 416.445 1766.76 415.784C1767.76 415.123 1769.07 414.792 1770.69 414.792C1772.91 414.792 1774.58 415.389 1775.68 416.584C1776.79 417.779 1777.35 419.443 1777.35 421.576C1777.35 422.643 1777.2 423.613 1776.9 424.488C1776.6 425.341 1776.21 426.163 1775.72 426.952C1775.23 427.741 1774.69 428.552 1774.12 429.384L1768.8 437.448H1776.68V441H1763.78ZM1780.07 441V415.08H1784.42V429.96L1789.19 422.504H1793.93L1789.29 429.928L1793.83 441H1789.26L1785.9 431.88L1784.42 433.928V441H1780.07Z" fill="white"/>
<path d="M1744.31 971V967.864L1750.71 957.976C1751.18 957.251 1751.62 956.557 1752.02 955.896C1752.45 955.235 1752.79 954.552 1753.05 953.848C1753.33 953.123 1753.46 952.333 1753.46 951.48C1753.46 950.52 1753.29 949.784 1752.95 949.272C1752.61 948.76 1752.08 948.504 1751.35 948.504C1750.67 948.504 1750.14 948.696 1749.75 949.08C1749.37 949.464 1749.1 949.965 1748.95 950.584C1748.82 951.203 1748.76 951.885 1748.76 952.632V953.72H1744.41V952.568C1744.41 951.032 1744.63 949.688 1745.08 948.536C1745.55 947.363 1746.29 946.445 1747.29 945.784C1748.29 945.123 1749.6 944.792 1751.22 944.792C1753.44 944.792 1755.11 945.389 1756.22 946.584C1757.33 947.779 1757.88 949.443 1757.88 951.576C1757.88 952.643 1757.73 953.613 1757.43 954.488C1757.13 955.341 1756.74 956.163 1756.25 956.952C1755.76 957.741 1755.22 958.552 1754.65 959.384L1749.34 967.448H1757.21V971H1744.31ZM1767.45 971.384C1765.94 971.384 1764.68 971.064 1763.67 970.424C1762.69 969.784 1761.95 968.899 1761.43 967.768C1760.94 966.637 1760.7 965.336 1760.7 963.864V952.376C1760.7 950.861 1760.93 949.539 1761.4 948.408C1761.89 947.256 1762.63 946.36 1763.61 945.72C1764.61 945.08 1765.89 944.76 1767.45 944.76C1769.01 944.76 1770.28 945.08 1771.26 945.72C1772.26 946.36 1773 947.256 1773.47 948.408C1773.96 949.539 1774.2 950.861 1774.2 952.376V963.864C1774.2 965.336 1773.95 966.637 1773.43 967.768C1772.94 968.899 1772.2 969.784 1771.19 970.424C1770.21 971.064 1768.96 971.384 1767.45 971.384ZM1767.45 967.576C1768.11 967.576 1768.6 967.373 1768.92 966.968C1769.24 966.563 1769.46 966.072 1769.56 965.496C1769.67 964.92 1769.72 964.355 1769.72 963.8V952.44C1769.72 951.843 1769.67 951.256 1769.56 950.68C1769.48 950.083 1769.27 949.581 1768.95 949.176C1768.63 948.771 1768.13 948.568 1767.45 948.568C1766.77 948.568 1766.27 948.771 1765.95 949.176C1765.63 949.581 1765.41 950.083 1765.31 950.68C1765.22 951.256 1765.18 951.843 1765.18 952.44V963.8C1765.18 964.355 1765.23 964.92 1765.34 965.496C1765.47 966.072 1765.69 966.563 1766.01 966.968C1766.33 967.373 1766.81 967.576 1767.45 967.576ZM1784.54 971.384C1783.03 971.384 1781.77 971.064 1780.77 970.424C1779.79 969.784 1779.04 968.899 1778.53 967.768C1778.04 966.637 1777.79 965.336 1777.79 963.864V952.376C1777.79 950.861 1778.03 949.539 1778.5 948.408C1778.99 947.256 1779.72 946.36 1780.7 945.72C1781.71 945.08 1782.99 944.76 1784.54 944.76C1786.1 944.76 1787.37 945.08 1788.35 945.72C1789.35 946.36 1790.09 947.256 1790.56 948.408C1791.05 949.539 1791.3 950.861 1791.3 952.376V963.864C1791.3 965.336 1791.04 966.637 1790.53 967.768C1790.04 968.899 1789.29 969.784 1788.29 970.424C1787.31 971.064 1786.06 971.384 1784.54 971.384ZM1784.54 967.576C1785.21 967.576 1785.7 967.373 1786.02 966.968C1786.34 966.563 1786.55 966.072 1786.66 965.496C1786.76 964.92 1786.82 964.355 1786.82 963.8V952.44C1786.82 951.843 1786.76 951.256 1786.66 950.68C1786.57 950.083 1786.37 949.581 1786.05 949.176C1785.73 948.771 1785.23 948.568 1784.54 948.568C1783.86 948.568 1783.36 948.771 1783.04 949.176C1782.72 949.581 1782.51 950.083 1782.4 950.68C1782.31 951.256 1782.27 951.843 1782.27 952.44V963.8C1782.27 964.355 1782.33 964.92 1782.43 965.496C1782.56 966.072 1782.78 966.563 1783.1 966.968C1783.42 967.373 1783.9 967.576 1784.54 967.576Z" fill="white"/>
<path d="M1751.77 866V859.632H1744.02V855.856L1750.78 840.08H1755.93V856.112H1758.58V859.632H1755.93V866H1751.77ZM1747.74 856.112H1751.77V844.848L1747.74 856.112ZM1767.67 866.384C1766.15 866.384 1764.9 866.064 1763.89 865.424C1762.91 864.784 1762.17 863.899 1761.65 862.768C1761.16 861.637 1760.92 860.336 1760.92 858.864V847.376C1760.92 845.861 1761.15 844.539 1761.62 843.408C1762.11 842.256 1762.85 841.36 1763.83 840.72C1764.83 840.08 1766.11 839.76 1767.67 839.76C1769.23 839.76 1770.5 840.08 1771.48 840.72C1772.48 841.36 1773.22 842.256 1773.69 843.408C1774.18 844.539 1774.42 845.861 1774.42 847.376V858.864C1774.42 860.336 1774.17 861.637 1773.65 862.768C1773.16 863.899 1772.42 864.784 1771.41 865.424C1770.43 866.064 1769.18 866.384 1767.67 866.384ZM1767.67 862.576C1768.33 862.576 1768.82 862.373 1769.14 861.968C1769.46 861.563 1769.67 861.072 1769.78 860.496C1769.89 859.92 1769.94 859.355 1769.94 858.8V847.44C1769.94 846.843 1769.89 846.256 1769.78 845.68C1769.7 845.083 1769.49 844.581 1769.17 844.176C1768.85 843.771 1768.35 843.568 1767.67 843.568C1766.99 843.568 1766.49 843.771 1766.17 844.176C1765.85 844.581 1765.63 845.083 1765.53 845.68C1765.44 846.256 1765.4 846.843 1765.4 847.44V858.8C1765.4 859.355 1765.45 859.92 1765.56 860.496C1765.69 861.072 1765.91 861.563 1766.23 861.968C1766.55 862.373 1767.03 862.576 1767.67 862.576ZM1784.76 866.384C1783.25 866.384 1781.99 866.064 1780.99 865.424C1780.01 864.784 1779.26 863.899 1778.75 862.768C1778.26 861.637 1778.01 860.336 1778.01 858.864V847.376C1778.01 845.861 1778.25 844.539 1778.71 843.408C1779.21 842.256 1779.94 841.36 1780.92 840.72C1781.93 840.08 1783.21 839.76 1784.76 839.76C1786.32 839.76 1787.59 840.08 1788.57 840.72C1789.57 841.36 1790.31 842.256 1790.78 843.408C1791.27 844.539 1791.51 845.861 1791.51 847.376V858.864C1791.51 860.336 1791.26 861.637 1790.75 862.768C1790.26 863.899 1789.51 864.784 1788.51 865.424C1787.53 866.064 1786.28 866.384 1784.76 866.384ZM1784.76 862.576C1785.42 862.576 1785.91 862.373 1786.23 861.968C1786.55 861.563 1786.77 861.072 1786.87 860.496C1786.98 859.92 1787.03 859.355 1787.03 858.8V847.44C1787.03 846.843 1786.98 846.256 1786.87 845.68C1786.79 845.083 1786.59 844.581 1786.27 844.176C1785.95 843.771 1785.45 843.568 1784.76 843.568C1784.08 843.568 1783.58 843.771 1783.26 844.176C1782.94 844.581 1782.73 845.083 1782.62 845.68C1782.53 846.256 1782.49 846.843 1782.49 847.44V858.8C1782.49 859.355 1782.54 859.92 1782.65 860.496C1782.78 861.072 1783 861.563 1783.32 861.968C1783.64 862.373 1784.12 862.576 1784.76 862.576Z" fill="white"/>
<path d="M1751.54 762.352C1749.94 762.352 1748.64 761.979 1747.64 761.232C1746.64 760.485 1745.9 759.472 1745.43 758.192C1744.98 756.891 1744.76 755.44 1744.76 753.84V744.752C1744.76 743.067 1744.95 741.552 1745.34 740.208C1745.72 738.843 1746.4 737.765 1747.38 736.976C1748.37 736.187 1749.74 735.792 1751.51 735.792C1753.03 735.792 1754.25 736.048 1755.19 736.56C1756.15 737.051 1756.86 737.776 1757.3 738.736C1757.75 739.696 1757.98 740.88 1757.98 742.288C1757.98 742.352 1757.98 742.427 1757.98 742.512C1758 742.576 1758.01 742.64 1758.01 742.704H1753.75C1753.75 741.552 1753.61 740.688 1753.34 740.112C1753.06 739.536 1752.46 739.248 1751.54 739.248C1750.99 739.248 1750.54 739.419 1750.2 739.76C1749.86 740.101 1749.6 740.667 1749.43 741.456C1749.28 742.224 1749.21 743.259 1749.21 744.56V747.664C1749.51 747.173 1749.95 746.789 1750.55 746.512C1751.17 746.213 1751.89 746.064 1752.7 746.064C1754.1 746.043 1755.21 746.352 1756.02 746.992C1756.83 747.632 1757.41 748.517 1757.75 749.648C1758.11 750.779 1758.3 752.069 1758.3 753.52C1758.3 755.205 1758.08 756.72 1757.66 758.064C1757.23 759.387 1756.53 760.432 1755.54 761.2C1754.56 761.968 1753.23 762.352 1751.54 762.352ZM1751.58 758.928C1752.19 758.928 1752.66 758.736 1752.98 758.352C1753.3 757.968 1753.53 757.435 1753.66 756.752C1753.78 756.069 1753.85 755.269 1753.85 754.352C1753.85 753.413 1753.81 752.581 1753.72 751.856C1753.66 751.109 1753.46 750.523 1753.14 750.096C1752.82 749.648 1752.29 749.424 1751.54 749.424C1751.18 749.424 1750.84 749.499 1750.52 749.648C1750.22 749.776 1749.95 749.947 1749.72 750.16C1749.51 750.373 1749.34 750.587 1749.21 750.8V754.864C1749.21 755.589 1749.27 756.261 1749.4 756.88C1749.55 757.499 1749.79 758 1750.14 758.384C1750.5 758.747 1750.98 758.928 1751.58 758.928ZM1768.23 762.384C1766.72 762.384 1765.46 762.064 1764.46 761.424C1763.47 760.784 1762.73 759.899 1762.22 758.768C1761.72 757.637 1761.48 756.336 1761.48 754.864V743.376C1761.48 741.861 1761.71 740.539 1762.18 739.408C1762.67 738.256 1763.41 737.36 1764.39 736.72C1765.39 736.08 1766.67 735.76 1768.23 735.76C1769.79 735.76 1771.06 736.08 1772.04 736.72C1773.04 737.36 1773.78 738.256 1774.25 739.408C1774.74 740.539 1774.98 741.861 1774.98 743.376V754.864C1774.98 756.336 1774.73 757.637 1774.22 758.768C1773.72 759.899 1772.98 760.784 1771.98 761.424C1770.99 762.064 1769.75 762.384 1768.23 762.384ZM1768.23 758.576C1768.89 758.576 1769.38 758.373 1769.7 757.968C1770.02 757.563 1770.24 757.072 1770.34 756.496C1770.45 755.92 1770.5 755.355 1770.5 754.8V743.44C1770.5 742.843 1770.45 742.256 1770.34 741.68C1770.26 741.083 1770.06 740.581 1769.74 740.176C1769.42 739.771 1768.91 739.568 1768.23 739.568C1767.55 739.568 1767.05 739.771 1766.73 740.176C1766.41 740.581 1766.19 741.083 1766.09 741.68C1766 742.256 1765.96 742.843 1765.96 743.44V754.8C1765.96 755.355 1766.01 755.92 1766.12 756.496C1766.25 757.072 1766.47 757.563 1766.79 757.968C1767.11 758.373 1767.59 758.576 1768.23 758.576ZM1785.33 762.384C1783.81 762.384 1782.55 762.064 1781.55 761.424C1780.57 760.784 1779.82 759.899 1779.31 758.768C1778.82 757.637 1778.57 756.336 1778.57 754.864V743.376C1778.57 741.861 1778.81 740.539 1779.28 739.408C1779.77 738.256 1780.5 737.36 1781.49 736.72C1782.49 736.08 1783.77 735.76 1785.33 735.76C1786.88 735.76 1788.15 736.08 1789.13 736.72C1790.14 737.36 1790.87 738.256 1791.34 739.408C1791.83 740.539 1792.08 741.861 1792.08 743.376V754.864C1792.08 756.336 1791.82 757.637 1791.31 758.768C1790.82 759.899 1790.07 760.784 1789.07 761.424C1788.09 762.064 1786.84 762.384 1785.33 762.384ZM1785.33 758.576C1785.99 758.576 1786.48 758.373 1786.8 757.968C1787.12 757.563 1787.33 757.072 1787.44 756.496C1787.54 755.92 1787.6 755.355 1787.6 754.8V743.44C1787.6 742.843 1787.54 742.256 1787.44 741.68C1787.35 741.083 1787.15 740.581 1786.83 740.176C1786.51 739.771 1786.01 739.568 1785.33 739.568C1784.64 739.568 1784.14 739.771 1783.82 740.176C1783.5 740.581 1783.29 741.083 1783.18 741.68C1783.1 742.256 1783.05 742.843 1783.05 743.44V754.8C1783.05 755.355 1783.11 755.92 1783.21 756.496C1783.34 757.072 1783.57 757.563 1783.89 757.968C1784.21 758.373 1784.69 758.576 1785.33 758.576Z" fill="white"/>
<line x1="93" y1="229.5" x2="1723.01" y2="229.5" stroke="#342F43" stroke-width="7" stroke-dasharray="2 3"/>
<line x1="93.0039" y1="339" x2="1723.01" y2="339" stroke="#342F43" stroke-width="7" stroke-dasharray="2 3"/>
<line x1="93.0039" y1="442" x2="1723.01" y2="442" stroke="#342F43" stroke-width="7" stroke-dasharray="2 3"/>
<line x1="93.0039" y1="549" x2="1723.01" y2="549" stroke="#342F43" stroke-width="7" stroke-dasharray="2 3"/>
<line x1="93.0039" y1="656" x2="1723.01" y2="656" stroke="#342F43" stroke-width="7" stroke-dasharray="2 3"/>
<line x1="93.0039" y1="763" x2="1723.01" y2="763" stroke="#342F43" stroke-width="7" stroke-dasharray="2 3"/>
<line x1="93.0039" y1="867" x2="1723.01" y2="867" stroke="#342F43" stroke-width="7" stroke-dasharray="2 3"/>
<line x1="93.0039" y1="972" x2="1723.01" y2="972" stroke="#342F43" stroke-width="7" stroke-dasharray="2 3"/>
<path d="M1747.83 228V206.976C1747.7 207.04 1747.45 207.136 1747.06 207.264C1746.7 207.392 1746.3 207.52 1745.85 207.648C1745.4 207.755 1744.98 207.861 1744.6 207.968C1744.24 208.075 1743.98 208.16 1743.83 208.224V204.928C1744.13 204.821 1744.5 204.672 1744.95 204.48C1745.4 204.288 1745.87 204.075 1746.36 203.84C1746.87 203.584 1747.34 203.307 1747.77 203.008C1748.22 202.709 1748.58 202.4 1748.86 202.08H1752.25V228H1747.83ZM1757.04 228V223.616H1761.26V228H1757.04ZM1771.01 228.352C1769.41 228.352 1768.11 227.979 1767.11 227.232C1766.11 226.485 1765.37 225.472 1764.9 224.192C1764.45 222.891 1764.23 221.44 1764.23 219.84V210.752C1764.23 209.067 1764.42 207.552 1764.8 206.208C1765.19 204.843 1765.87 203.765 1766.85 202.976C1767.83 202.187 1769.21 201.792 1770.98 201.792C1772.5 201.792 1773.72 202.048 1774.66 202.56C1775.62 203.051 1776.32 203.776 1776.77 204.736C1777.22 205.696 1777.44 206.88 1777.44 208.288C1777.44 208.352 1777.44 208.427 1777.44 208.512C1777.47 208.576 1777.48 208.64 1777.48 208.704H1773.22C1773.22 207.552 1773.08 206.688 1772.8 206.112C1772.53 205.536 1771.93 205.248 1771.01 205.248C1770.46 205.248 1770.01 205.419 1769.67 205.76C1769.33 206.101 1769.07 206.667 1768.9 207.456C1768.75 208.224 1768.68 209.259 1768.68 210.56V213.664C1768.98 213.173 1769.42 212.789 1770.02 212.512C1770.64 212.213 1771.35 212.064 1772.16 212.064C1773.57 212.043 1774.68 212.352 1775.49 212.992C1776.3 213.632 1776.88 214.517 1777.22 215.648C1777.58 216.779 1777.76 218.069 1777.76 219.52C1777.76 221.205 1777.55 222.72 1777.12 224.064C1776.7 225.387 1775.99 226.432 1775.01 227.2C1774.03 227.968 1772.7 228.352 1771.01 228.352ZM1771.04 224.928C1771.66 224.928 1772.13 224.736 1772.45 224.352C1772.77 223.968 1773 223.435 1773.12 222.752C1773.25 222.069 1773.32 221.269 1773.32 220.352C1773.32 219.413 1773.27 218.581 1773.19 217.856C1773.12 217.109 1772.93 216.523 1772.61 216.096C1772.29 215.648 1771.76 215.424 1771.01 215.424C1770.65 215.424 1770.31 215.499 1769.99 215.648C1769.69 215.776 1769.42 215.947 1769.19 216.16C1768.98 216.373 1768.8 216.587 1768.68 216.8V220.864C1768.68 221.589 1768.74 222.261 1768.87 222.88C1769.02 223.499 1769.26 224 1769.6 224.384C1769.97 224.747 1770.45 224.928 1771.04 224.928ZM1780.85 228V202.08H1785.2V216.96L1789.97 209.504H1794.71L1790.07 216.928L1794.61 228H1790.04L1786.68 218.88L1785.2 220.928V228H1780.85Z" fill="white"/>
<line x1="93" y1="1071" x2="1723" y2="1071" stroke="#1A132C" stroke-width="8"/>
<path d="M204.008 1120.5V1098.1H207.432L217.224 1114.45H215.432L225.064 1098.1H228.488L228.52 1120.5H224.584L224.552 1104.28H225.384L217.192 1117.94H215.336L207.016 1104.28H207.976V1120.5H204.008ZM244.715 1120.5V1117.04L244.491 1116.31V1110.26C244.491 1109.09 244.139 1108.18 243.435 1107.54C242.731 1106.88 241.664 1106.55 240.235 1106.55C239.275 1106.55 238.325 1106.7 237.387 1107C236.469 1107.29 235.691 1107.71 235.051 1108.24L233.483 1105.33C234.4 1104.63 235.488 1104.11 236.747 1103.76C238.027 1103.4 239.349 1103.22 240.715 1103.22C243.189 1103.22 245.099 1103.82 246.443 1105.01C247.808 1106.19 248.491 1108.01 248.491 1110.48V1120.5H244.715ZM239.339 1120.72C238.059 1120.72 236.939 1120.51 235.979 1120.08C235.019 1119.64 234.272 1119.03 233.739 1118.26C233.227 1117.47 232.971 1116.59 232.971 1115.6C232.971 1114.64 233.195 1113.78 233.643 1113.01C234.112 1112.24 234.869 1111.64 235.915 1111.19C236.96 1110.74 238.347 1110.52 240.075 1110.52H245.035V1113.17H240.363C238.997 1113.17 238.08 1113.4 237.611 1113.84C237.141 1114.27 236.907 1114.8 236.907 1115.44C236.907 1116.17 237.195 1116.75 237.771 1117.17C238.347 1117.6 239.147 1117.81 240.171 1117.81C241.152 1117.81 242.027 1117.59 242.795 1117.14C243.584 1116.69 244.149 1116.03 244.491 1115.16L245.163 1117.56C244.779 1118.56 244.085 1119.34 243.083 1119.89C242.101 1120.45 240.853 1120.72 239.339 1120.72ZM253.624 1120.5V1103.41H257.432V1108.12L256.984 1106.74C257.496 1105.59 258.296 1104.71 259.384 1104.12C260.493 1103.52 261.869 1103.22 263.512 1103.22V1107.03C263.341 1106.99 263.181 1106.96 263.032 1106.96C262.883 1106.94 262.733 1106.93 262.584 1106.93C261.069 1106.93 259.864 1107.38 258.968 1108.28C258.072 1109.15 257.624 1110.46 257.624 1112.21V1120.5H253.624ZM274.589 1120.72C272.797 1120.72 271.197 1120.35 269.789 1119.6C268.402 1118.84 267.314 1117.79 266.525 1116.47C265.736 1115.15 265.341 1113.64 265.341 1111.96C265.341 1110.25 265.736 1108.75 266.525 1107.44C267.314 1106.12 268.402 1105.09 269.789 1104.34C271.197 1103.59 272.797 1103.22 274.589 1103.22C276.253 1103.22 277.714 1103.56 278.973 1104.24C280.253 1104.91 281.224 1105.89 281.885 1107.19L278.813 1108.98C278.301 1108.17 277.672 1107.57 276.925 1107.19C276.2 1106.8 275.41 1106.61 274.557 1106.61C273.576 1106.61 272.69 1106.83 271.901 1107.25C271.112 1107.68 270.493 1108.3 270.045 1109.11C269.597 1109.9 269.373 1110.85 269.373 1111.96C269.373 1113.07 269.597 1114.03 270.045 1114.84C270.493 1115.63 271.112 1116.23 271.901 1116.66C272.69 1117.09 273.576 1117.3 274.557 1117.3C275.41 1117.3 276.2 1117.11 276.925 1116.72C277.672 1116.34 278.301 1115.74 278.813 1114.93L281.885 1116.72C281.224 1118 280.253 1119 278.973 1119.7C277.714 1120.38 276.253 1120.72 274.589 1120.72ZM294.883 1103.22C296.248 1103.22 297.464 1103.49 298.531 1104.02C299.619 1104.55 300.472 1105.37 301.091 1106.48C301.709 1107.57 302.019 1108.98 302.019 1110.71V1120.5H298.019V1111.22C298.019 1109.71 297.656 1108.57 296.931 1107.83C296.227 1107.08 295.235 1106.71 293.955 1106.71C293.016 1106.71 292.184 1106.9 291.459 1107.28C290.733 1107.67 290.168 1108.24 289.763 1109.01C289.379 1109.76 289.187 1110.71 289.187 1111.86V1120.5H285.187V1096.76H289.187V1108.02L288.323 1106.61C288.92 1105.52 289.784 1104.69 290.915 1104.12C292.067 1103.52 293.389 1103.22 294.883 1103.22Z" fill="white"/>
<path d="M542.84 1120.5L552.92 1098.1H557.016L567.128 1120.5H562.776L554.104 1100.31H555.768L547.128 1120.5H542.84ZM547.48 1115.32L548.6 1112.05H560.696L561.816 1115.32H547.48ZM579.065 1120.72C577.678 1120.72 576.409 1120.4 575.257 1119.76C574.126 1119.12 573.219 1118.16 572.537 1116.88C571.875 1115.58 571.545 1113.94 571.545 1111.96C571.545 1109.95 571.865 1108.31 572.505 1107.03C573.166 1105.75 574.062 1104.8 575.193 1104.18C576.323 1103.54 577.614 1103.22 579.065 1103.22C580.75 1103.22 582.233 1103.58 583.513 1104.31C584.814 1105.03 585.838 1106.05 586.585 1107.35C587.353 1108.65 587.737 1110.19 587.737 1111.96C587.737 1113.73 587.353 1115.27 586.585 1116.6C585.838 1117.9 584.814 1118.91 583.513 1119.64C582.233 1120.36 580.75 1120.72 579.065 1120.72ZM569.593 1126.71V1103.41H573.401V1107.44L573.273 1111.99L573.593 1116.53V1126.71H569.593ZM578.617 1117.3C579.577 1117.3 580.43 1117.09 581.177 1116.66C581.945 1116.23 582.553 1115.61 583.001 1114.8C583.449 1113.99 583.673 1113.04 583.673 1111.96C583.673 1110.85 583.449 1109.9 583.001 1109.11C582.553 1108.3 581.945 1107.68 581.177 1107.25C580.43 1106.83 579.577 1106.61 578.617 1106.61C577.657 1106.61 576.793 1106.83 576.025 1107.25C575.257 1107.68 574.649 1108.3 574.201 1109.11C573.753 1109.9 573.529 1110.85 573.529 1111.96C573.529 1113.04 573.753 1113.99 574.201 1114.8C574.649 1115.61 575.257 1116.23 576.025 1116.66C576.793 1117.09 577.657 1117.3 578.617 1117.3ZM591.53 1120.5V1103.41H595.338V1108.12L594.89 1106.74C595.402 1105.59 596.202 1104.71 597.29 1104.12C598.4 1103.52 599.776 1103.22 601.418 1103.22V1107.03C601.248 1106.99 601.088 1106.96 600.938 1106.96C600.789 1106.94 600.64 1106.93 600.49 1106.93C598.976 1106.93 597.77 1107.38 596.874 1108.28C595.978 1109.15 595.53 1110.46 595.53 1112.21V1120.5H591.53ZM604.812 1120.5V1103.41H608.812V1120.5H604.812ZM606.828 1100.6C606.081 1100.6 605.462 1100.36 604.972 1099.89C604.502 1099.42 604.268 1098.86 604.268 1098.2C604.268 1097.51 604.502 1096.95 604.972 1096.5C605.462 1096.03 606.081 1095.8 606.828 1095.8C607.574 1095.8 608.182 1096.02 608.652 1096.47C609.142 1096.89 609.388 1097.44 609.388 1098.1C609.388 1098.8 609.153 1099.4 608.684 1099.89C608.214 1100.36 607.596 1100.6 606.828 1100.6ZM614.062 1120.5V1096.76H618.062V1120.5H614.062Z" fill="white"/>
<path d="M876.008 1120.5V1098.1H879.432L889.224 1114.45H887.432L897.064 1098.1H900.488L900.52 1120.5H896.584L896.552 1104.28H897.384L889.192 1117.94H887.336L879.016 1104.28H879.976V1120.5H876.008ZM916.715 1120.5V1117.04L916.491 1116.31V1110.26C916.491 1109.09 916.139 1108.18 915.435 1107.54C914.731 1106.88 913.664 1106.55 912.235 1106.55C911.275 1106.55 910.325 1106.7 909.387 1107C908.469 1107.29 907.691 1107.71 907.051 1108.24L905.483 1105.33C906.4 1104.63 907.488 1104.11 908.747 1103.76C910.027 1103.4 911.349 1103.22 912.715 1103.22C915.189 1103.22 917.099 1103.82 918.443 1105.01C919.808 1106.19 920.491 1108.01 920.491 1110.48V1120.5H916.715ZM911.339 1120.72C910.059 1120.72 908.939 1120.51 907.979 1120.08C907.019 1119.64 906.272 1119.03 905.739 1118.26C905.227 1117.47 904.971 1116.59 904.971 1115.6C904.971 1114.64 905.195 1113.78 905.643 1113.01C906.112 1112.24 906.869 1111.64 907.915 1111.19C908.96 1110.74 910.347 1110.52 912.075 1110.52H917.035V1113.17H912.363C910.997 1113.17 910.08 1113.4 909.611 1113.84C909.141 1114.27 908.907 1114.8 908.907 1115.44C908.907 1116.17 909.195 1116.75 909.771 1117.17C910.347 1117.6 911.147 1117.81 912.171 1117.81C913.152 1117.81 914.027 1117.59 914.795 1117.14C915.584 1116.69 916.149 1116.03 916.491 1115.16L917.163 1117.56C916.779 1118.56 916.085 1119.34 915.083 1119.89C914.101 1120.45 912.853 1120.72 911.339 1120.72ZM926.72 1126.93C925.888 1126.93 925.056 1126.79 924.224 1126.52C923.392 1126.24 922.698 1125.85 922.143 1125.36L923.743 1122.42C924.149 1122.78 924.608 1123.07 925.12 1123.28C925.632 1123.5 926.154 1123.6 926.688 1123.6C927.413 1123.6 928 1123.42 928.448 1123.06C928.896 1122.7 929.312 1122.09 929.696 1121.24L930.688 1119L931.008 1118.52L937.472 1103.41H941.312L933.312 1121.88C932.778 1123.16 932.181 1124.17 931.52 1124.92C930.88 1125.66 930.154 1126.19 929.344 1126.48C928.554 1126.78 927.68 1126.93 926.72 1126.93ZM930.24 1121.11L922.527 1103.41H926.688L932.96 1118.16L930.24 1121.11Z" fill="white"/>
<path d="M1201.5 1120.82C1200.07 1120.82 1198.74 1120.54 1197.53 1119.99C1196.33 1119.43 1195.35 1118.63 1194.58 1117.59L1196.95 1114.74C1197.57 1115.59 1198.24 1116.23 1198.97 1116.66C1199.71 1117.09 1200.53 1117.3 1201.4 1117.3C1203.73 1117.3 1204.89 1115.92 1204.89 1113.17V1101.59H1196.92V1098.1H1209.05V1112.95C1209.05 1115.59 1208.4 1117.57 1207.1 1118.87C1205.82 1120.17 1203.95 1120.82 1201.5 1120.82ZM1221.73 1120.72C1220.28 1120.72 1219 1120.46 1217.89 1119.92C1216.78 1119.37 1215.92 1118.54 1215.3 1117.43C1214.68 1116.3 1214.37 1114.88 1214.37 1113.17V1103.41H1218.37V1112.63C1218.37 1114.16 1218.71 1115.32 1219.4 1116.08C1220.1 1116.83 1221.09 1117.2 1222.37 1117.2C1223.31 1117.2 1224.12 1117.01 1224.8 1116.63C1225.51 1116.24 1226.05 1115.67 1226.44 1114.9C1226.84 1114.13 1227.04 1113.18 1227.04 1112.05V1103.41H1231.04V1120.5H1227.24V1115.89L1227.91 1117.3C1227.33 1118.41 1226.49 1119.26 1225.38 1119.86C1224.27 1120.44 1223.05 1120.72 1221.73 1120.72ZM1245.98 1103.22C1247.34 1103.22 1248.56 1103.49 1249.62 1104.02C1250.71 1104.55 1251.57 1105.37 1252.18 1106.48C1252.8 1107.57 1253.11 1108.98 1253.11 1110.71V1120.5H1249.11V1111.22C1249.11 1109.71 1248.75 1108.57 1248.02 1107.83C1247.32 1107.08 1246.33 1106.71 1245.05 1106.71C1244.11 1106.71 1243.28 1106.9 1242.55 1107.28C1241.83 1107.67 1241.26 1108.24 1240.86 1109.01C1240.47 1109.76 1240.28 1110.71 1240.28 1111.86V1120.5H1236.28V1103.41H1240.09V1108.02L1239.42 1106.61C1240.01 1105.52 1240.88 1104.69 1242.01 1104.12C1243.16 1103.52 1244.48 1103.22 1245.98 1103.22ZM1266.25 1120.72C1264.35 1120.72 1262.69 1120.35 1261.26 1119.6C1259.85 1118.84 1258.75 1117.79 1257.96 1116.47C1257.19 1115.15 1256.81 1113.64 1256.81 1111.96C1256.81 1110.25 1257.18 1108.75 1257.93 1107.44C1258.7 1106.12 1259.74 1105.09 1261.07 1104.34C1262.41 1103.59 1263.94 1103.22 1265.64 1103.22C1267.31 1103.22 1268.79 1103.58 1270.09 1104.31C1271.39 1105.03 1272.42 1106.06 1273.16 1107.38C1273.91 1108.7 1274.28 1110.26 1274.28 1112.05C1274.28 1112.22 1274.27 1112.41 1274.25 1112.63C1274.25 1112.84 1274.24 1113.04 1274.22 1113.24H1259.98V1110.58H1272.11L1270.54 1111.41C1270.56 1110.43 1270.36 1109.57 1269.93 1108.82C1269.5 1108.07 1268.92 1107.49 1268.17 1107.06C1267.44 1106.63 1266.6 1106.42 1265.64 1106.42C1264.66 1106.42 1263.8 1106.63 1263.05 1107.06C1262.32 1107.49 1261.75 1108.08 1261.32 1108.85C1260.92 1109.6 1260.71 1110.48 1260.71 1111.51V1112.15C1260.71 1113.17 1260.95 1114.08 1261.42 1114.87C1261.89 1115.66 1262.55 1116.27 1263.4 1116.69C1264.26 1117.12 1265.24 1117.33 1266.35 1117.33C1267.31 1117.33 1268.17 1117.18 1268.94 1116.88C1269.71 1116.59 1270.39 1116.12 1270.99 1115.48L1273.13 1117.94C1272.36 1118.84 1271.39 1119.53 1270.22 1120.02C1269.07 1120.49 1267.74 1120.72 1266.25 1120.72Z" fill="white"/>
<path d="M1532.5 1120.82C1531.07 1120.82 1529.74 1120.54 1528.53 1119.99C1527.33 1119.43 1526.35 1118.63 1525.58 1117.59L1527.95 1114.74C1528.57 1115.59 1529.24 1116.23 1529.97 1116.66C1530.71 1117.09 1531.53 1117.3 1532.4 1117.3C1534.73 1117.3 1535.89 1115.92 1535.89 1113.17V1101.59H1527.92V1098.1H1540.05V1112.95C1540.05 1115.59 1539.4 1117.57 1538.1 1118.87C1536.82 1120.17 1534.95 1120.82 1532.5 1120.82ZM1552.73 1120.72C1551.28 1120.72 1550 1120.46 1548.89 1119.92C1547.78 1119.37 1546.92 1118.54 1546.3 1117.43C1545.68 1116.3 1545.37 1114.88 1545.37 1113.17V1103.41H1549.37V1112.63C1549.37 1114.16 1549.71 1115.32 1550.4 1116.08C1551.1 1116.83 1552.09 1117.2 1553.37 1117.2C1554.31 1117.2 1555.12 1117.01 1555.8 1116.63C1556.51 1116.24 1557.05 1115.67 1557.44 1114.9C1557.84 1114.13 1558.04 1113.18 1558.04 1112.05V1103.41H1562.04V1120.5H1558.24V1115.89L1558.91 1117.3C1558.33 1118.41 1557.49 1119.26 1556.38 1119.86C1555.27 1120.44 1554.05 1120.72 1552.73 1120.72ZM1567.28 1120.5V1096.76H1571.28V1120.5H1567.28ZM1577.94 1126.93C1577.11 1126.93 1576.27 1126.79 1575.44 1126.52C1574.61 1126.24 1573.92 1125.85 1573.36 1125.36L1574.96 1122.42C1575.37 1122.78 1575.83 1123.07 1576.34 1123.28C1576.85 1123.5 1577.37 1123.6 1577.91 1123.6C1578.63 1123.6 1579.22 1123.42 1579.67 1123.06C1580.11 1122.7 1580.53 1122.09 1580.91 1121.24L1581.91 1119L1582.23 1118.52L1588.69 1103.41H1592.53L1584.53 1121.88C1584 1123.16 1583.4 1124.17 1582.74 1124.92C1582.1 1125.66 1581.37 1126.19 1580.56 1126.48C1579.77 1126.78 1578.9 1126.93 1577.94 1126.93ZM1581.46 1121.11L1573.75 1103.41H1577.91L1584.18 1118.16L1581.46 1121.11Z" fill="white"/>
<path d="M582 397L257 655V972.5H1560V256L1237 360L911 428L582 397Z" fill="url(#paint0_linear_255_35)"/>
<path d="M253 636L578 378L907 409L1233 341L1556 237" stroke="#A43ACB" stroke-width="10"/>
<defs>
<linearGradient id="paint0_linear_255_35" x1="909" y1="784" x2="909" y2="333" gradientUnits="userSpaceOnUse">
<stop stop-color="#4717F7" stop-opacity="0.06"/>
<stop offset="1" stop-color="#A43ACB" stop-opacity="0.48"/>
</linearGradient>
</defs>
</svg>
