<svg width="600" height="900" viewBox="0 0 600 900" fill="none" xmlns="http://www.w3.org/2000/svg">
<g clip-path="url(#clip0_240_263)">
<path d="M600 0H0V900H600V0Z" fill="black"/>
<path d="M0 613L14.3 618.7C28.7 624.3 57.3 635.7 85.8 623.2C114.3 610.7 142.7 574.3 171.2 573.8C199.7 573.3 228.3 608.7 257 613.3C285.7 618 314.3 592 343 573.5C371.7 555 400.3 544 428.8 555C457.3 566 485.7 599 514.2 598C542.7 597 571.3 562 585.7 544.5L600 527V901H585.7C571.3 901 542.7 901 514.2 901C485.7 901 457.3 901 428.8 901C400.3 901 371.7 901 343 901C314.3 901 285.7 901 257 901C228.3 901 199.7 901 171.2 901C142.7 901 114.3 901 85.8 901C57.3 901 28.7 901 14.3 901H0V613Z" fill="#A43ACB"/>
<path d="M0 641L14.3 628.8C28.7 616.7 57.3 592.3 85.8 599.8C114.3 607.3 142.7 646.7 171.2 650.5C199.7 654.3 228.3 622.7 257 622.5C285.7 622.3 314.3 653.7 343 651.5C371.7 649.3 400.3 613.7 428.8 609.7C457.3 605.7 485.7 633.3 514.2 631C542.7 628.7 571.3 596.3 585.7 580.2L600 564V901H585.7C571.3 901 542.7 901 514.2 901C485.7 901 457.3 901 428.8 901C400.3 901 371.7 901 343 901C314.3 901 285.7 901 257 901C228.3 901 199.7 901 171.2 901C142.7 901 114.3 901 85.8 901C57.3 901 28.7 901 14.3 901H0V641Z" fill="#9D33D0"/>
<path d="M0 622L14.3 635.8C28.7 649.7 57.3 677.3 85.8 677.3C114.3 677.3 142.7 649.7 171.2 642.2C199.7 634.7 228.3 647.3 257 652.2C285.7 657 314.3 654 343 649.3C371.7 644.7 400.3 638.3 428.8 638.8C457.3 639.3 485.7 646.7 514.2 644.5C542.7 642.3 571.3 630.7 585.7 624.8L600 619V901H585.7C571.3 901 542.7 901 514.2 901C485.7 901 457.3 901 428.8 901C400.3 901 371.7 901 343 901C314.3 901 285.7 901 257 901C228.3 901 199.7 901 171.2 901C142.7 901 114.3 901 85.8 901C57.3 901 28.7 901 14.3 901H0V622Z" fill="#952CD6"/>
<path d="M0 711L14.3 705.3C28.7 699.7 57.3 688.3 85.8 687.2C114.3 686 142.7 695 171.2 703.5C199.7 712 228.3 720 257 716.7C285.7 713.3 314.3 698.7 343 692.3C371.7 686 400.3 688 428.8 690.7C457.3 693.3 485.7 696.7 514.2 690.8C542.7 685 571.3 670 585.7 662.5L600 655V901H585.7C571.3 901 542.7 901 514.2 901C485.7 901 457.3 901 428.8 901C400.3 901 371.7 901 343 901C314.3 901 285.7 901 257 901C228.3 901 199.7 901 171.2 901C142.7 901 114.3 901 85.8 901C57.3 901 28.7 901 14.3 901H0V711Z" fill="#8B26DC"/>
<path d="M0 712L14.3 711.2C28.7 710.3 57.3 708.7 85.8 710.7C114.3 712.7 142.7 718.3 171.2 723.3C199.7 728.3 228.3 732.7 257 738.2C285.7 743.7 314.3 750.3 343 743.8C371.7 737.3 400.3 717.7 428.8 719C457.3 720.3 485.7 742.7 514.2 746C542.7 749.3 571.3 733.7 585.7 725.8L600 718V901H585.7C571.3 901 542.7 901 514.2 901C485.7 901 457.3 901 428.8 901C400.3 901 371.7 901 343 901C314.3 901 285.7 901 257 901C228.3 901 199.7 901 171.2 901C142.7 901 114.3 901 85.8 901C57.3 901 28.7 901 14.3 901H0V712Z" fill="#8020E2"/>
<path d="M0 788L14.3 791C28.7 794 57.3 800 85.8 802.5C114.3 805 142.7 804 171.2 799.3C199.7 794.7 228.3 786.3 257 783.7C285.7 781 314.3 784 343 789.2C371.7 794.3 400.3 801.7 428.8 804.2C457.3 806.7 485.7 804.3 514.2 803.7C542.7 803 571.3 804 585.7 804.5L600 805V901H585.7C571.3 901 542.7 901 514.2 901C485.7 901 457.3 901 428.8 901C400.3 901 371.7 901 343 901C314.3 901 285.7 901 257 901C228.3 901 199.7 901 171.2 901C142.7 901 114.3 901 85.8 901C57.3 901 28.7 901 14.3 901H0V788Z" fill="#721CE9"/>
<path d="M0 797L14.3 800.7C28.7 804.3 57.3 811.7 85.8 817.8C114.3 824 142.7 829 171.2 831.2C199.7 833.3 228.3 832.7 257 828C285.7 823.3 314.3 814.7 343 813.3C371.7 812 400.3 818 428.8 823.8C457.3 829.7 485.7 835.3 514.2 831.2C542.7 827 571.3 813 585.7 806L600 799V901H585.7C571.3 901 542.7 901 514.2 901C485.7 901 457.3 901 428.8 901C400.3 901 371.7 901 343 901C314.3 901 285.7 901 257 901C228.3 901 199.7 901 171.2 901C142.7 901 114.3 901 85.8 901C57.3 901 28.7 901 14.3 901H0V797Z" fill="#6018F0"/>
<path d="M0 856L14.3 858C28.7 860 57.3 864 85.8 862.3C114.3 860.7 142.7 853.3 171.2 853C199.7 852.7 228.3 859.3 257 856.5C285.7 853.7 314.3 841.3 343 837.7C371.7 834 400.3 839 428.8 842.8C457.3 846.7 485.7 849.3 514.2 846.7C542.7 844 571.3 836 585.7 832L600 828V901H585.7C571.3 901 542.7 901 514.2 901C485.7 901 457.3 901 428.8 901C400.3 901 371.7 901 343 901C314.3 901 285.7 901 257 901C228.3 901 199.7 901 171.2 901C142.7 901 114.3 901 85.8 901C57.3 901 28.7 901 14.3 901H0V856Z" fill="url(#paint0_linear_240_263)"/>
</g>
<defs>
<linearGradient id="paint0_linear_240_263" x1="300" y1="828" x2="300" y2="894.5" gradientUnits="userSpaceOnUse">
<stop stop-color="#4717F7"/>
<stop offset="1"/>
</linearGradient>
<clipPath id="clip0_240_263">
<rect width="600" height="900" fill="white"/>
</clipPath>
</defs>
</svg>
