<svg width="960" height="540" viewBox="0 0 960 540" fill="none" xmlns="http://www.w3.org/2000/svg">
<g clip-path="url(#clip0_239_235)">
<path d="M960 0H0V540H960V0Z" fill="black"/>
<path d="M0 256H22.8C45.7 256 91.3 256 137 252.8C182.7 249.7 228.3 243.3 274 251.3C319.7 259.3 365.3 281.7 411.2 292.2C457 302.7 503 301.3 548.8 288.5C594.7 275.7 640.3 251.3 686 245.7C731.7 240 777.3 253 823 266.7C868.7 280.3 914.3 294.7 937.2 301.8L960 309V541H937.2C914.3 541 868.7 541 823 541C777.3 541 731.7 541 686 541C640.3 541 594.7 541 548.8 541C503 541 457 541 411.2 541C365.3 541 319.7 541 274 541C228.3 541 182.7 541 137 541C91.3 541 45.7 541 22.8 541H0V256Z" fill="#4717F7"/>
<path d="M0 378L22.8 369.2C45.7 360.3 91.3 342.7 137 331C182.7 319.3 228.3 313.7 274 313.2C319.7 312.7 365.3 317.3 411.2 326.7C457 336 503 350 548.8 356.5C594.7 363 640.3 362 686 354.7C731.7 347.3 777.3 333.7 823 328.5C868.7 323.3 914.3 326.7 937.2 328.3L960 330V541H937.2C914.3 541 868.7 541 823 541C777.3 541 731.7 541 686 541C640.3 541 594.7 541 548.8 541C503 541 457 541 411.2 541C365.3 541 319.7 541 274 541C228.3 541 182.7 541 137 541C91.3 541 45.7 541 22.8 541H0V378Z" fill="#771DE7"/>
<path d="M0 441L22.8 429.5C45.7 418 91.3 395 137 394.7C182.7 394.3 228.3 416.7 274 423.8C319.7 431 365.3 423 411.2 417.7C457 412.3 503 409.7 548.8 406.2C594.7 402.7 640.3 398.3 686 396.2C731.7 394 777.3 394 823 393.7C868.7 393.3 914.3 392.7 937.2 392.3L960 392V541H937.2C914.3 541 868.7 541 823 541C777.3 541 731.7 541 686 541C640.3 541 594.7 541 548.8 541C503 541 457 541 411.2 541C365.3 541 319.7 541 274 541C228.3 541 182.7 541 137 541C91.3 541 45.7 541 22.8 541H0V441Z" fill="#922AD8"/>
<path d="M0 458L22.8 460.8C45.7 463.7 91.3 469.3 137 466.3C182.7 463.3 228.3 451.7 274 453.8C319.7 456 365.3 472 411.2 473.5C457 475 503 462 548.8 463.3C594.7 464.7 640.3 480.3 686 483C731.7 485.7 777.3 475.3 823 476.2C868.7 477 914.3 489 937.2 495L960 501V541H937.2C914.3 541 868.7 541 823 541C777.3 541 731.7 541 686 541C640.3 541 594.7 541 548.8 541C503 541 457 541 411.2 541C365.3 541 319.7 541 274 541C228.3 541 182.7 541 137 541C91.3 541 45.7 541 22.8 541H0V458Z" fill="url(#paint0_linear_239_235)"/>
</g>
<defs>
<linearGradient id="paint0_linear_239_235" x1="480" y1="453.547" x2="480" y2="517" gradientUnits="userSpaceOnUse">
<stop stop-color="#A43ACB"/>
<stop offset="1"/>
</linearGradient>
<clipPath id="clip0_239_235">
<rect width="960" height="540" fill="white"/>
</clipPath>
</defs>
</svg>
