<svg width="560" height="300" viewBox="0 0 560 300" fill="none" xmlns="http://www.w3.org/2000/svg">
<g clip-path="url(#clip0_240_253)">
<path d="M560 0H0V300H560V0Z" fill="black"/>
<path d="M0 204L13.3 205.8C26.7 207.7 53.3 211.3 80 207.2C106.7 203 133.3 191 160 190.8C186.7 190.7 213.3 202.3 240 203.8C266.7 205.3 293.3 196.7 320 190.5C346.7 184.3 373.3 180.7 400 184.3C426.7 188 453.3 199 480 198.7C506.7 198.3 533.3 186.7 546.7 180.8L560 175V301H546.7C533.3 301 506.7 301 480 301C453.3 301 426.7 301 400 301C373.3 301 346.7 301 320 301C293.3 301 266.7 301 240 301C213.3 301 186.7 301 160 301C133.3 301 106.7 301 80 301C53.3 301 26.7 301 13.3 301H0V204Z" fill="#A43ACB"/>
<path d="M0 213L13.3 209C26.7 205 53.3 197 80 199.5C106.7 202 133.3 215 160 216.2C186.7 217.3 213.3 206.7 240 206.7C266.7 206.7 293.3 217.3 320 216.7C346.7 216 373.3 204 400 202.7C426.7 201.3 453.3 210.7 480 209.8C506.7 209 533.3 198 546.7 192.5L560 187V301H546.7C533.3 301 506.7 301 480 301C453.3 301 426.7 301 400 301C373.3 301 346.7 301 320 301C293.3 301 266.7 301 240 301C213.3 301 186.7 301 160 301C133.3 301 106.7 301 80 301C53.3 301 26.7 301 13.3 301H0V213Z" fill="#9D33D0"/>
<path d="M0 207L13.3 211.5C26.7 216 53.3 225 80 225C106.7 225 133.3 216 160 213.5C186.7 211 213.3 215 240 216.5C266.7 218 293.3 217 320 215.5C346.7 214 373.3 212 400 212.2C426.7 212.3 453.3 214.7 480 214C506.7 213.3 533.3 209.7 546.7 207.8L560 206V301H546.7C533.3 301 506.7 301 480 301C453.3 301 426.7 301 400 301C373.3 301 346.7 301 320 301C293.3 301 266.7 301 240 301C213.3 301 186.7 301 160 301C133.3 301 106.7 301 80 301C53.3 301 26.7 301 13.3 301H0V207Z" fill="#952CD6"/>
<path d="M0 236L13.3 234.2C26.7 232.3 53.3 228.7 80 228.3C106.7 228 133.3 231 160 233.8C186.7 236.7 213.3 239.3 240 238.2C266.7 237 293.3 232 320 229.8C346.7 227.7 373.3 228.3 400 229.3C426.7 230.3 453.3 231.7 480 229.8C506.7 228 533.3 223 546.7 220.5L560 218V301H546.7C533.3 301 506.7 301 480 301C453.3 301 426.7 301 400 301C373.3 301 346.7 301 320 301C293.3 301 266.7 301 240 301C213.3 301 186.7 301 160 301C133.3 301 106.7 301 80 301C53.3 301 26.7 301 13.3 301H0V236Z" fill="#8B26DC"/>
<path d="M0 237L13.3 236.7C26.7 236.3 53.3 235.7 80 236.3C106.7 237 133.3 239 160 240.7C186.7 242.3 213.3 243.7 240 245.5C266.7 247.3 293.3 249.7 320 247.5C346.7 245.3 373.3 238.7 400 239C426.7 239.3 453.3 246.7 480 247.8C506.7 249 533.3 244 546.7 241.5L560 239V301H546.7C533.3 301 506.7 301 480 301C453.3 301 426.7 301 400 301C373.3 301 346.7 301 320 301C293.3 301 266.7 301 240 301C213.3 301 186.7 301 160 301C133.3 301 106.7 301 80 301C53.3 301 26.7 301 13.3 301H0V237Z" fill="#8020E2"/>
<path d="M0 262L13.3 263C26.7 264 53.3 266 80 266.8C106.7 267.7 133.3 267.3 160 265.8C186.7 264.3 213.3 261.7 240 260.8C266.7 260 293.3 261 320 262.7C346.7 264.3 373.3 266.7 400 267.5C426.7 268.3 453.3 267.7 480 267.5C506.7 267.3 533.3 267.7 546.7 267.8L560 268V301H546.7C533.3 301 506.7 301 480 301C453.3 301 426.7 301 400 301C373.3 301 346.7 301 320 301C293.3 301 266.7 301 240 301C213.3 301 186.7 301 160 301C133.3 301 106.7 301 80 301C53.3 301 26.7 301 13.3 301H0V262Z" fill="#721CE9"/>
<path d="M0 265L13.3 266.2C26.7 267.3 53.3 269.7 80 271.7C106.7 273.7 133.3 275.3 160 276.2C186.7 277 213.3 277 240 275.5C266.7 274 293.3 271 320 270.5C346.7 270 373.3 272 400 274C426.7 276 453.3 278 480 276.7C506.7 275.3 533.3 270.7 546.7 268.3L560 266V301H546.7C533.3 301 506.7 301 480 301C453.3 301 426.7 301 400 301C373.3 301 346.7 301 320 301C293.3 301 266.7 301 240 301C213.3 301 186.7 301 160 301C133.3 301 106.7 301 80 301C53.3 301 26.7 301 13.3 301H0V265Z" fill="#6018F0"/>
<path d="M0 285L13.3 285.7C26.7 286.3 53.3 287.7 80 287C106.7 286.3 133.3 283.7 160 283.5C186.7 283.3 213.3 285.7 240 284.8C266.7 284 293.3 280 320 278.8C346.7 277.7 373.3 279.3 400 280.5C426.7 281.7 453.3 282.3 480 281.3C506.7 280.3 533.3 277.7 546.7 276.3L560 275V301H546.7C533.3 301 506.7 301 480 301C453.3 301 426.7 301 400 301C373.3 301 346.7 301 320 301C293.3 301 266.7 301 240 301C213.3 301 186.7 301 160 301C133.3 301 106.7 301 80 301C53.3 301 26.7 301 13.3 301H0V285Z" fill="url(#paint0_linear_240_253)"/>
</g>
<defs>
<linearGradient id="paint0_linear_240_253" x1="280" y1="275" x2="280" y2="298" gradientUnits="userSpaceOnUse">
<stop stop-color="#4717F7"/>
<stop offset="1"/>
</linearGradient>
<clipPath id="clip0_240_253">
<rect width="560" height="300" fill="white"/>
</clipPath>
</defs>
</svg>
