<svg width="600" height="900" viewBox="0 0 600 900" fill="none" xmlns="http://www.w3.org/2000/svg">
<g clip-path="url(#clip0_239_247)">
<path d="M600 0H0V900H600V0Z" fill="black"/>
<path d="M0 427L14.3 427.2C28.7 427.3 57.3 427.7 85.8 422.5C114.3 417.3 142.7 406.7 171.2 420C199.7 433.3 228.3 470.7 257 488.2C285.7 505.7 314.3 503.3 343 481.8C371.7 460.3 400.3 419.7 428.8 410.2C457.3 400.7 485.7 422.3 514.2 445.2C542.7 468 571.3 492 585.7 504L600 516V901H585.7C571.3 901 542.7 901 514.2 901C485.7 901 457.3 901 428.8 901C400.3 901 371.7 901 343 901C314.3 901 285.7 901 257 901C228.3 901 199.7 901 171.2 901C142.7 901 114.3 901 85.8 901C57.3 901 28.7 901 14.3 901H0V427Z" fill="#4717F7"/>
<path d="M0 631L14.3 616.3C28.7 601.7 57.3 572.3 85.8 552.7C114.3 533 142.7 523 171.2 522C199.7 521 228.3 529 257 544.7C285.7 560.3 314.3 583.7 343 594.7C371.7 605.7 400.3 604.3 428.8 592C457.3 579.7 485.7 556.3 514.2 547.5C542.7 538.7 571.3 544.3 585.7 547.2L600 550V901H585.7C571.3 901 542.7 901 514.2 901C485.7 901 457.3 901 428.8 901C400.3 901 371.7 901 343 901C314.3 901 285.7 901 257 901C228.3 901 199.7 901 171.2 901C142.7 901 114.3 901 85.8 901C57.3 901 28.7 901 14.3 901H0V631Z" fill="#771DE7"/>
<path d="M0 736L14.3 716.8C28.7 697.7 57.3 659.3 85.8 658.8C114.3 658.3 142.7 695.7 171.2 707.5C199.7 719.3 228.3 705.7 257 696.7C285.7 687.7 314.3 683.3 343 677.7C371.7 672 400.3 665 428.8 661.5C457.3 658 485.7 658 514.2 657.3C542.7 656.7 571.3 655.3 585.7 654.7L600 654V901H585.7C571.3 901 542.7 901 514.2 901C485.7 901 457.3 901 428.8 901C400.3 901 371.7 901 343 901C314.3 901 285.7 901 257 901C228.3 901 199.7 901 171.2 901C142.7 901 114.3 901 85.8 901C57.3 901 28.7 901 14.3 901H0V736Z" fill="#922AD8"/>
<path d="M0 763L14.3 767.8C28.7 772.7 57.3 782.3 85.8 777.7C114.3 773 142.7 754 171.2 757.5C199.7 761 228.3 787 257 789.3C285.7 791.7 314.3 770.3 343 772.7C371.7 775 400.3 801 428.8 805.5C457.3 810 485.7 793 514.2 794.3C542.7 795.7 571.3 815.3 585.7 825.2L600 835V901H585.7C571.3 901 542.7 901 514.2 901C485.7 901 457.3 901 428.8 901C400.3 901 371.7 901 343 901C314.3 901 285.7 901 257 901C228.3 901 199.7 901 171.2 901C142.7 901 114.3 901 85.8 901C57.3 901 28.7 901 14.3 901H0V763Z" fill="url(#paint0_linear_239_247)"/>
</g>
<defs>
<linearGradient id="paint0_linear_239_247" x1="300" y1="757" x2="300" y2="850" gradientUnits="userSpaceOnUse">
<stop stop-color="#A43ACB"/>
<stop offset="1"/>
</linearGradient>
<clipPath id="clip0_239_247">
<rect width="600" height="900" fill="white"/>
</clipPath>
</defs>
</svg>
