<svg width="80" height="80" viewBox="0 0 80 80" fill="none" xmlns="http://www.w3.org/2000/svg">
<g clip-path="url(#clip0_82_84)">
<path d="M42.503 32.5008H17.5029C13.5247 32.5008 9.70937 30.9205 6.89634 28.1074C4.08327 25.2944 2.50293 21.4791 2.50293 17.5008C2.50293 13.5226 4.08327 9.70731 6.89634 6.89424C9.70937 4.08121 13.5247 2.50085 17.5029 2.50085H57.503C60.736 2.50017 63.8827 3.54404 66.474 5.47694C69.0657 7.40987 70.9633 10.1283 71.8843 13.2273C72.8057 16.3263 72.7007 19.64 71.5857 22.6746C70.4703 25.7092 68.4047 28.3023 65.6963 30.0675" stroke="#E9DFE0" stroke-width="4" stroke-linecap="round" stroke-linejoin="round"/>
<path d="M27.5029 62.5007H17.5029C13.5247 62.5007 9.70937 60.9204 6.89634 58.1074C4.08327 55.2944 2.50293 51.4791 2.50293 47.5007C2.50293 43.5227 4.08327 39.7074 6.89634 36.8944C9.70937 34.0814 13.5247 32.5009 17.5029 32.5009" stroke="#E9DFE0" stroke-width="4" stroke-linecap="round" stroke-linejoin="round"/>
<path d="M35.0029 17.5009H57.5029" stroke="#E9DFE0" stroke-width="4" stroke-linecap="round" stroke-linejoin="round"/>
<path d="M57.5029 77.5006C68.5486 77.5006 77.5029 68.5466 77.5029 57.5006C77.5029 46.4549 68.5486 37.5006 57.5029 37.5006C46.4573 37.5006 37.5029 46.4549 37.5029 57.5006C37.5029 68.5466 46.4573 77.5006 57.5029 77.5006Z" stroke="#E9DFE0" stroke-width="4" stroke-linecap="round" stroke-linejoin="round"/>
<path d="M57.5029 47.5006V67.5006" stroke="#E9DFE0" stroke-width="4" stroke-linecap="round" stroke-linejoin="round"/>
<path d="M47.5029 57.5006H67.5029" stroke="#E9DFE0" stroke-width="4" stroke-linecap="round" stroke-linejoin="round"/>
<path d="M17.5029 18.7509C16.8126 18.7509 16.2529 18.1912 16.2529 17.5009C16.2529 16.8105 16.8126 16.2509 17.5029 16.2509" stroke="#E9DFE0" stroke-width="4"/>
<path d="M17.5029 18.7509C18.1933 18.7509 18.7529 18.1912 18.7529 17.5009C18.7529 16.8105 18.1933 16.2509 17.5029 16.2509" stroke="#E9DFE0" stroke-width="4"/>
<path d="M17.5029 48.7506C16.8126 48.7506 16.2529 48.1913 16.2529 47.5006C16.2529 46.8103 16.8126 46.2506 17.5029 46.2506" stroke="#E9DFE0" stroke-width="4"/>
<path d="M17.5029 48.7506C18.1933 48.7506 18.7529 48.1913 18.7529 47.5006C18.7529 46.8103 18.1933 46.2506 17.5029 46.2506" stroke="#E9DFE0" stroke-width="4"/>
</g>
<defs>
<clipPath id="clip0_82_84">
<rect width="80" height="80" fill="white"/>
</clipPath>
</defs>
</svg>
