<svg width="81" height="81" viewBox="0 0 81 81" fill="none" xmlns="http://www.w3.org/2000/svg">
<path d="M37.9971 56.9152C37.9971 61.888 39.9724 66.657 43.4889 70.1733C47.0052 73.6898 51.7743 75.6652 56.7471 75.6652C61.7199 75.6652 66.4889 73.6898 70.0052 70.1733C73.5218 66.657 75.4971 61.888 75.4971 56.9152C75.4971 51.9423 73.5218 47.1733 70.0052 43.657C66.4889 40.1405 61.7199 38.1652 56.7471 38.1652C51.7743 38.1652 47.0052 40.1405 43.4889 43.657C39.9724 47.1733 37.9971 51.9423 37.9971 56.9152Z" stroke="#E9DFE0" stroke-width="4" stroke-linecap="round" stroke-linejoin="round"/>
<path d="M56.7471 47.5402V66.2902" stroke="#E9DFE0" stroke-width="4" stroke-linecap="round" stroke-linejoin="round"/>
<path d="M47.3721 56.9152H66.1221" stroke="#E9DFE0" stroke-width="4" stroke-linecap="round" stroke-linejoin="round"/>
<path d="M28.6221 52.2277H9.87207C8.62888 52.2277 7.43657 51.7339 6.55751 50.8548C5.67843 49.9758 5.18457 48.7833 5.18457 47.5402V10.0402C5.18457 8.79697 5.67843 7.60466 6.55751 6.7256C7.43657 5.84652 8.62888 5.35266 9.87207 5.35266H66.1221C67.3652 5.35266 68.5577 5.84652 69.4368 6.7256C70.3158 7.60466 70.8096 8.79697 70.8096 10.0402V31.1339" stroke="#E9DFE0" stroke-width="4" stroke-linecap="round" stroke-linejoin="round"/>
<path d="M69.7504 7.07159L44.3004 26.6466C42.4932 28.0368 40.2773 28.7905 37.9973 28.7905C35.7173 28.7905 33.5013 28.0368 31.6941 26.6466L6.24414 7.07159" stroke="#E9DFE0" stroke-width="4" stroke-linecap="round" stroke-linejoin="round"/>
</svg>
