<svg width="80" height="80" viewBox="0 0 80 80" fill="none" xmlns="http://www.w3.org/2000/svg">
<g clip-path="url(#clip0_82_84)">
<path d="M42.5035 32.5008H17.5034C13.5252 32.5008 9.70986 30.9205 6.89683 28.1074C4.08376 25.2944 2.50342 21.4791 2.50342 17.5008C2.50342 13.5226 4.08376 9.70731 6.89683 6.89424C9.70986 4.08121 13.5252 2.50085 17.5034 2.50085H57.5035C60.7365 2.50017 63.8832 3.54404 66.4745 5.47694C69.0662 7.40987 70.9638 10.1283 71.8848 13.2273C72.8062 16.3263 72.7012 19.64 71.5862 22.6746C70.4708 25.7092 68.4052 28.3023 65.6968 30.0675" stroke="black" stroke-width="4" stroke-linecap="round" stroke-linejoin="round"/>
<path d="M27.5034 62.5007H17.5034C13.5252 62.5007 9.70986 60.9204 6.89683 58.1074C4.08376 55.2944 2.50342 51.4791 2.50342 47.5007C2.50342 43.5227 4.08376 39.7074 6.89683 36.8944C9.70986 34.0814 13.5252 32.5009 17.5034 32.5009" stroke="black" stroke-width="4" stroke-linecap="round" stroke-linejoin="round"/>
<path d="M35.0034 17.5009H57.5034" stroke="black" stroke-width="4" stroke-linecap="round" stroke-linejoin="round"/>
<path d="M57.5034 77.5006C68.5491 77.5006 77.5034 68.5466 77.5034 57.5006C77.5034 46.4549 68.5491 37.5006 57.5034 37.5006C46.4578 37.5006 37.5034 46.4549 37.5034 57.5006C37.5034 68.5466 46.4578 77.5006 57.5034 77.5006Z" stroke="black" stroke-width="4" stroke-linecap="round" stroke-linejoin="round"/>
<path d="M57.5034 47.5006V67.5006" stroke="black" stroke-width="4" stroke-linecap="round" stroke-linejoin="round"/>
<path d="M47.5034 57.5006H67.5034" stroke="black" stroke-width="4" stroke-linecap="round" stroke-linejoin="round"/>
<path d="M17.5034 18.7509C16.8131 18.7509 16.2534 18.1912 16.2534 17.5009C16.2534 16.8105 16.8131 16.2509 17.5034 16.2509" stroke="black" stroke-width="4"/>
<path d="M17.5034 18.7509C18.1938 18.7509 18.7534 18.1912 18.7534 17.5009C18.7534 16.8105 18.1938 16.2509 17.5034 16.2509" stroke="black" stroke-width="4"/>
<path d="M17.5034 48.7506C16.8131 48.7506 16.2534 48.1913 16.2534 47.5006C16.2534 46.8103 16.8131 46.2506 17.5034 46.2506" stroke="black" stroke-width="4"/>
<path d="M17.5034 48.7506C18.1938 48.7506 18.7534 48.1913 18.7534 47.5006C18.7534 46.8103 18.1938 46.2506 17.5034 46.2506" stroke="black" stroke-width="4"/>
</g>
<defs>
<clipPath id="clip0_82_84">
<rect width="80" height="80" fill="white"/>
</clipPath>
</defs>
</svg>
